<mxfile host="app.diagrams.net" modified="2023-04-07T09:22:08.485Z" agent="Mozilla/5.0 (Windows NT 10.0; Win64; x64) AppleWebKit/537.36 (KHTML, like Gecko) Chrome/111.0.0.0 Safari/537.36" etag="asvKTXmQlDjUH0F5p-lJ" version="21.1.4" type="github">
  <diagram name="Page-1" id="M5HPpJ0Py7zIP4Tu9IO3">
    <mxGraphModel dx="1050" dy="581" grid="1" gridSize="10" guides="1" tooltips="1" connect="1" arrows="1" fold="1" page="1" pageScale="1" pageWidth="850" pageHeight="1100" math="0" shadow="0">
      <root>
        <mxCell id="0" />
        <mxCell id="1" parent="0" />
        <mxCell id="LiAQzGf3EZ_xEIawhr6P-1" value="Strategy behavioral pattern diagram" style="rounded=0;whiteSpace=wrap;html=1;" vertex="1" parent="1">
          <mxGeometry width="850" height="90" as="geometry" />
        </mxCell>
        <mxCell id="LiAQzGf3EZ_xEIawhr6P-29" value="&lt;p style=&quot;margin:0px;margin-top:4px;text-align:center;&quot;&gt;&lt;i&gt;&amp;lt;&amp;lt;Interface&amp;gt;&amp;gt;&lt;/i&gt;&lt;br&gt;&lt;b&gt;IStrategy&lt;/b&gt;&lt;/p&gt;&lt;hr size=&quot;1&quot;&gt;&lt;p style=&quot;margin:0px;margin-left:4px;&quot;&gt;&lt;/p&gt;&lt;p style=&quot;margin:0px;margin-left:4px;&quot;&gt;+ execute()&lt;br&gt;&lt;br&gt;&lt;/p&gt;" style="verticalAlign=top;align=left;overflow=fill;fontSize=12;fontFamily=Helvetica;html=1;whiteSpace=wrap;" vertex="1" parent="1">
          <mxGeometry x="310" y="150" width="170" height="80" as="geometry" />
        </mxCell>
        <mxCell id="LiAQzGf3EZ_xEIawhr6P-37" style="edgeStyle=orthogonalEdgeStyle;rounded=0;orthogonalLoop=1;jettySize=auto;html=1;exitX=0.5;exitY=0;exitDx=0;exitDy=0;entryX=0.5;entryY=1;entryDx=0;entryDy=0;dashed=1;endArrow=block;endFill=0;" edge="1" parent="1" source="LiAQzGf3EZ_xEIawhr6P-30" target="LiAQzGf3EZ_xEIawhr6P-29">
          <mxGeometry relative="1" as="geometry" />
        </mxCell>
        <mxCell id="LiAQzGf3EZ_xEIawhr6P-30" value="ConcreteStrategy1&lt;br&gt;" style="swimlane;fontStyle=1;align=center;verticalAlign=top;childLayout=stackLayout;horizontal=1;startSize=26;horizontalStack=0;resizeParent=1;resizeParentMax=0;resizeLast=0;collapsible=1;marginBottom=0;whiteSpace=wrap;html=1;" vertex="1" parent="1">
          <mxGeometry x="270" y="270" width="160" height="60" as="geometry" />
        </mxCell>
        <mxCell id="LiAQzGf3EZ_xEIawhr6P-32" value="" style="line;strokeWidth=1;fillColor=none;align=left;verticalAlign=middle;spacingTop=-1;spacingLeft=3;spacingRight=3;rotatable=0;labelPosition=right;points=[];portConstraint=eastwest;strokeColor=inherit;" vertex="1" parent="LiAQzGf3EZ_xEIawhr6P-30">
          <mxGeometry y="26" width="160" height="8" as="geometry" />
        </mxCell>
        <mxCell id="LiAQzGf3EZ_xEIawhr6P-33" value="+ execute()" style="text;strokeColor=none;fillColor=none;align=left;verticalAlign=top;spacingLeft=4;spacingRight=4;overflow=hidden;rotatable=0;points=[[0,0.5],[1,0.5]];portConstraint=eastwest;whiteSpace=wrap;html=1;" vertex="1" parent="LiAQzGf3EZ_xEIawhr6P-30">
          <mxGeometry y="34" width="160" height="26" as="geometry" />
        </mxCell>
        <mxCell id="LiAQzGf3EZ_xEIawhr6P-34" value="ConcreteStrategy2&lt;br&gt;" style="swimlane;fontStyle=1;align=center;verticalAlign=top;childLayout=stackLayout;horizontal=1;startSize=26;horizontalStack=0;resizeParent=1;resizeParentMax=0;resizeLast=0;collapsible=1;marginBottom=0;whiteSpace=wrap;html=1;" vertex="1" parent="1">
          <mxGeometry x="440" y="270" width="160" height="60" as="geometry" />
        </mxCell>
        <mxCell id="LiAQzGf3EZ_xEIawhr6P-35" value="" style="line;strokeWidth=1;fillColor=none;align=left;verticalAlign=middle;spacingTop=-1;spacingLeft=3;spacingRight=3;rotatable=0;labelPosition=right;points=[];portConstraint=eastwest;strokeColor=inherit;" vertex="1" parent="LiAQzGf3EZ_xEIawhr6P-34">
          <mxGeometry y="26" width="160" height="8" as="geometry" />
        </mxCell>
        <mxCell id="LiAQzGf3EZ_xEIawhr6P-36" value="+ execute()" style="text;strokeColor=none;fillColor=none;align=left;verticalAlign=top;spacingLeft=4;spacingRight=4;overflow=hidden;rotatable=0;points=[[0,0.5],[1,0.5]];portConstraint=eastwest;whiteSpace=wrap;html=1;" vertex="1" parent="LiAQzGf3EZ_xEIawhr6P-34">
          <mxGeometry y="34" width="160" height="26" as="geometry" />
        </mxCell>
        <mxCell id="LiAQzGf3EZ_xEIawhr6P-38" style="edgeStyle=orthogonalEdgeStyle;rounded=0;orthogonalLoop=1;jettySize=auto;html=1;entryX=0.594;entryY=0.996;entryDx=0;entryDy=0;dashed=1;endArrow=block;endFill=0;entryPerimeter=0;exitX=0.5;exitY=0;exitDx=0;exitDy=0;" edge="1" parent="1" source="LiAQzGf3EZ_xEIawhr6P-34" target="LiAQzGf3EZ_xEIawhr6P-29">
          <mxGeometry relative="1" as="geometry">
            <mxPoint x="640" y="240" as="sourcePoint" />
            <mxPoint x="405" y="240" as="targetPoint" />
          </mxGeometry>
        </mxCell>
        <mxCell id="LiAQzGf3EZ_xEIawhr6P-42" value="Context" style="swimlane;fontStyle=1;align=center;verticalAlign=top;childLayout=stackLayout;horizontal=1;startSize=26;horizontalStack=0;resizeParent=1;resizeParentMax=0;resizeLast=0;collapsible=1;marginBottom=0;whiteSpace=wrap;html=1;" vertex="1" parent="1">
          <mxGeometry x="50" y="144" width="190" height="100" as="geometry" />
        </mxCell>
        <mxCell id="LiAQzGf3EZ_xEIawhr6P-43" value="- strategy: IStrategy" style="text;strokeColor=none;fillColor=none;align=left;verticalAlign=top;spacingLeft=4;spacingRight=4;overflow=hidden;rotatable=0;points=[[0,0.5],[1,0.5]];portConstraint=eastwest;whiteSpace=wrap;html=1;" vertex="1" parent="LiAQzGf3EZ_xEIawhr6P-42">
          <mxGeometry y="26" width="190" height="26" as="geometry" />
        </mxCell>
        <mxCell id="LiAQzGf3EZ_xEIawhr6P-44" value="" style="line;strokeWidth=1;fillColor=none;align=left;verticalAlign=middle;spacingTop=-1;spacingLeft=3;spacingRight=3;rotatable=0;labelPosition=right;points=[];portConstraint=eastwest;strokeColor=inherit;" vertex="1" parent="LiAQzGf3EZ_xEIawhr6P-42">
          <mxGeometry y="52" width="190" height="8" as="geometry" />
        </mxCell>
        <mxCell id="LiAQzGf3EZ_xEIawhr6P-45" value="+ setStrategy(strategy):&lt;br&gt;+doSomething()" style="text;strokeColor=none;fillColor=none;align=left;verticalAlign=top;spacingLeft=4;spacingRight=4;overflow=hidden;rotatable=0;points=[[0,0.5],[1,0.5]];portConstraint=eastwest;whiteSpace=wrap;html=1;" vertex="1" parent="LiAQzGf3EZ_xEIawhr6P-42">
          <mxGeometry y="60" width="190" height="40" as="geometry" />
        </mxCell>
        <mxCell id="LiAQzGf3EZ_xEIawhr6P-47" value="" style="edgeStyle=orthogonalEdgeStyle;rounded=0;orthogonalLoop=1;jettySize=auto;html=1;endArrow=none;endFill=0;dashed=1;dashPattern=1 4;" edge="1" parent="1" target="LiAQzGf3EZ_xEIawhr6P-45">
          <mxGeometry relative="1" as="geometry">
            <mxPoint x="60" y="270" as="sourcePoint" />
            <Array as="points">
              <mxPoint x="60" y="250" />
              <mxPoint x="30" y="250" />
              <mxPoint x="30" y="230" />
            </Array>
          </mxGeometry>
        </mxCell>
        <mxCell id="LiAQzGf3EZ_xEIawhr6P-46" value="strategy.execute()" style="html=1;whiteSpace=wrap;fillColor=#E6E6E6;strokeColor=#8f8f8f;" vertex="1" parent="1">
          <mxGeometry x="10" y="270" width="100" height="20" as="geometry" />
        </mxCell>
        <mxCell id="LiAQzGf3EZ_xEIawhr6P-51" value="" style="edgeStyle=orthogonalEdgeStyle;rounded=0;orthogonalLoop=1;jettySize=auto;html=1;endArrow=none;endFill=0;dashed=1;dashPattern=8 8;" edge="1" parent="1" source="LiAQzGf3EZ_xEIawhr6P-49" target="LiAQzGf3EZ_xEIawhr6P-50">
          <mxGeometry relative="1" as="geometry" />
        </mxCell>
        <mxCell id="LiAQzGf3EZ_xEIawhr6P-49" value="" style="shape=image;verticalLabelPosition=bottom;labelBackgroundColor=default;verticalAlign=top;aspect=fixed;imageAspect=0;image=data:image/png,iVBORw0KGgoAAAANSUhEUgAAAQIAAAC6CAYAAABFoUP8AAAgAElEQVR4nOx9529c15n+M733xhnOkMPeJEoUZUuWbLnEitZJNtnFfsgGCPbvWmCxX4IFtmCRBMGuUxZykWVZlRQltmEZzpDTe+935vdBv/fNkKJESpZtlXmAIBY5c3nuvee85z1veR5RoVDoVKtVtFot9PDmQBAEZLNZtFotyGQymM1miESiH3pYPXwLdDoddDodGAwGaLXaZ3qf0nQ6jVQqhVqt9h0OsYeXHfl8/oceQg8vAO12G263G1KpFEqlEgCOZRDEtVoNjUbjux5fDz308D1ALBYjm80iFouh2Wyi0+kc63vSdruNdrsNiUQCo9EIiUTyHQ+1hx56eNGoVqsoFosAgEajgVwuB7FYDIvFArVaDbFY/NTvS+k/xGIx9Ho9FArFdzviHnro4YUjm82yIWi326jVakgkEmwANBoNgCcfE6SH/rSHHnp4ZUGLv16vIx6PQxAEKBQKSCSSniHooYc3BRqNBnK5HLlcDs1mE9lsFp1OBw6HA0ql8tBjQs8Q9NDDawaFQgGNRgNBEFCpVFCr1ZDJZCCVSmEymQ6NGfQMwQ+MdrvN7tqrlMc/GI1+lcb+XYKeyw/5PEQiERQKBSwWCwCgVCqhVqshHo8DAKRSKRQKxb4x9gzBD4ROp4N2u41KpQKJRAK5XA6p9NV5Ha1Wi9PONPY33Ri0220uzJNKpUdG6r9LiEQiSCQSGAwGiMVi5PN5NJtNJJNJtFotuFwuyGQyHuOrM/NeA7TbbTSbTQSDQUSjUWQyGVQqFbbgOp0Op06dgsPh+KGHeigKhQJCoRCSySSy2SwqlQqAR4bA4XBgZmYGOp0OMpnsBx7p949ms4mdnR2sra0BAAYHBzEwMACz2fyDjUkkEkEul0Or1QIAisUipxYlEgnMZjMfE16IIRAEgd0Pk8kEmUz2xu8Oh6FeryORSGBxcRHBYBCVSoU9A4lEAp1OB6/X+1IagkajgWg0im+++Qa5XA6VSmVfwYrX68XQ0BDUajVarRYqlQpkMhmUSiXkcvkLGwfNtWq1CrPZ/FLMtU6ng1QqhbW1NXzzzTeQy+Vcvk078vc5xmaziWq1yv9ut9u8+7daLVSrVcTjcX53Wq322xuCTqeDarWKpaUl7Ozs4Mc//jEsFssLffmvC3K5HL755htsbGzAbDbj/fffh91u56BOpVLhc93LhkwmA5/Ph9u3b+P8+fO4ePEi+vr60Gw2kU6nIZfL+b1vb29jdXUVVqsVIyMj6OvreyFj6HQ6qNVqePDgAba3t/HjH/8YVqv1B59rnU4H9+/fx97eHlwuF9xuN3Z2dnDr1i3MzMw8dh7/rpHL5Q4tGadeBJFIhEajgVAohHq9jvHx8eMbgk6ng3K5jFKphEajAY1GA5VKBalUimw2i3A4jGAwiFQqBbFYDI1GA61Wyz0MIpEIlUoFjUYDUqn0hTe5tNtt1Ot1NJtNiMViaLValEollEol1Ot16PV6TqsQBEFAo9FAPp9HvV7nM5VKpWIDR9ZUoVBAKpXyd+r1OlQqFe9IgiCgVqtBEAT+/MEqzWq1imAwCJVKBa/Xi/HxcSiVSnQ6HbRaLbRaLXbj6JlXq1X2ttRqNT/3g/dNu06z2UShUOB30L1DFwoFjih3/x1CsVjkv0WfUavVAIB0Oo10Og2ZTIaJiQmMj49DrVaj3W7DarWyG1oulxGJRLC1tYVmswmj0QiNRgOlUgmpVIpGo4FarQaVSoVqtYpqtcpjkkqlPFaaN1qtllNerVaL51ogEOC5ptVq+X7a7Ta/02azCalUCoPBALlcvu990HMrFototVoQi8VQKpXQarUQi8W8qyoUin3fpTgA/U4ikaBcLsPv90MkEuHcuXOw2+3I5/OIRCJYX1/H8PAwDAbDt53iTwXFBARB4AX/JNDvuj9zpCHodDpoNpvY3t5GLBZDoVCAIAhQKpWwWq3o7+/H8vIy/H4/kskklpaWoNfr4Xa7cfr0aYRCIRQKBTQaDWSzWTSbTdhsNpw7d+4xQ1CtVlEul1Eulw+9EYlEArVaDa1W+1gFZL1eRyAQQCKR4JxpLBZDNptFo9GAwWDA6Ogo3G43VCoVSqUS4vE4QqEQMpkMLyaj0YihoSFIJBIkEgkUCgWYTCa43W44HA7kcjlEIhGEw2F4PB44nU7odDqk02kEg0HUajX09/fD5XLxIupGu93m5yoWix+boIRWq4W9vT2Ew2FkMhk0m00oFAqYzWa43W7Y7XYolUrU63X4/X40m002AqVSCQCg0+ng8XiQz+eRTqdRLpchlUrhcDgwMjICo9EIqVSKcrmMUCiESCTCuWeFQgGn0wmPx8NHFZpgFBCjnY7us9PpYHNzE+vr6wiHw2g2m6jX68hmsxgeHobZbEYikcDq6ipMJhOKxSLq9TocDgd7F6FQiA1Ep9OBTqfD8PAwTCYTGo0GVlZWsL29jVQqhaWlJRgMBvT39+PMmTN89Nrd3UU6nWZDYDQaMTw8DJvNBoVCgWKxiGg0ing8jnw+z4aADLTVaoUgCHjw4AFsNhtcLhdsNhvP0WQyie3tbYyMjMBkMvEc7+/vx/j4ODQaDex2OxKJBHw+H+x2+3duCORyOfR6Pdrt9pH9BeSBduNIQ9But1EsFvHHP/4Ru7u76HQ6UCqVqFQqGBgYwKVLl/DNN98gFAqh3W7j66+/hkgkwunTp3Hy5EmsrKxgfX0dmUwGxWIREokEs7OzOH/+/GN/K5vNIhAIYHd3lxdMN5RKJfr7+zE6OvqYIahUKrh//z4WFxdRqVQwODiI3d1dlEoltNttiMViXL58GSqVCv39/XzevXHjBprN5r77/eCDD6DX6+H3+7G5uYnBwUFcuHABFosFe3t7+Oabb3Dnzh28/fbbuHjxIoaGhuD3+/H555+jXC7jgw8+4HxtNxQKBdxuN9bX17GzswO3242hoSFoNBpIJBKO4LbbbZTLZXz11VdYXV1FLpeDSqVCvV6H0WjEyZMn8eGHH8LhcKBcLuPu3btstMhNp4j+qVOnEI/HkUwmodFokMvlMDg4CEEQMDs7C5VKhUQigT/+8Y/Y29tDrVbjnd3j8WB+fh4fffQRTCYTzGYzms0mlpaWIJfLceLECd4VxWIx2u02FhcXsby8jGKxiHw+j0AggEAgAKlUCpVKha2tLfzXf/0X7HY7Go0GZDIZZmdnUa/XEYvF8Pnnn0Mmk0EQBDSbTQiCgMuXL2NmZgadTge3bt1CIBDguSYWizE7O4u5uTlkMhncvXsXX375JVqtFkQiEW9kP/vZzzA/Pw+r1YqdnR3cuHEDKysrbJAFQYAgCDh//jzm5+chk8nwP//zPxgbG8O5c+fYEGSzWTx8+BCfffYZ/vZv/xZjY2PY3NyEVCqF1WqFyWQCADgcDkSjUWxvb+PMmTNHLbNvDbVafejGcxgqlQobWsKRhqBSqSASiSCTyWBqagrnzp2DXq9n18hms0Eul+P69esIBAL4xS9+wQ+EJnar1YJKpcInn3zCvzvsWEBR9VqtdqghINf3sN91o1arIRqNwuv18vgpQBIKhdDX14eFhQUsLy+j0+lgYmICBoMBlUoFDx48gM/nw+DgIIaGhrC3t4d8Po9YLIZ2u41oNIpIJIJ2uw2/34+RkRG43W7EYjGUy2VoNBoMDw/vc98JZrMZ7733HiqVCoLBIH77299iYGAAMzMzGB8fh8VigUgkQi6Xw/r6Ora2ttDX14crV67A7XYjHA5jfX0dCwsLGB4e3vfiS6USDAYDfv7zn0On02FtbQ1ff/01VldXcfr0afzkJz+BxWLBF198gXQ6jUAggMnJSRQKBaytrcHv9+PcuXOYmpqCRqPBw4cPsbm5idXVVVy8eBFmsxnj4+MIhUKcOXjw4AFmZ2cxMjICq9UKsViMn/70p7BYLLh9+zZGRkYwMTGBgYEBGI1GHi81w5w4cQIjIyPQarWQyWRwuVxwuVx8bIzFYvjLX/6CZDKJTCaDubk5/PznP8f169fh9/vxi1/8AjabjRffysoKn9Pff/996PV6xGIxXL16FcFgkD2gr7/+Gvl8HnNzczhz5gzUajX8fj9u3LgBmUwGmUwGg8GAkZERlEolhEIhnD17FsAjQxCPx9Hf3w+TyYRWq4VoNAqdTgej0cjvw2AwQKPRIB6P86L7oYOaT8ORhkAkErHFrFarfN52OBzs1rpcLhiNRsjlcrjdbrhcLiiVSgiCAABQqVQwmUyYmJiAxWJ5Yr5cqVTCbDajXq8f6t7I5XKYTKYjg0MqlQqDg4M4deoUyuUyFAoFNjc3USqVkE6nUSgUOH2nUCjQ398Pq9WKbDbL3ovT6cTg4CAUCgXy+TzC4TByuRxisRgymQxEIhGy2SxSqRTS6TT29vbQbDZhMBj42RwEudtvv/02u5SxWAyVSgWJRIJTh6VSia/ncrkwOzvLO3K1WsXy8jLi8ThcLhcbHLVaDafTienpaSgUCpRKJVgsFmQyGbhcLl7gfr8f1WoV2WyWyUmi0SharRYUCgUUCgXHF9rtNvL5PEqlElQqFVwuFy5evIjNzU1EIhEkEgncvHkTiUQCExMTGBsbg8PhgM1m43fp8XgwMDCwf9JJpezZDQ8PA3h0rNBqtTCbzZDL5XzWNRqNvDnQPRqNRshkMrjdbvT390OpVKLdbvMxjwKItKjVajXy+Tzi8TjMZjMikQhsNhtmZmYwOTkJhUKBer0OjUbDsRatVovJyUncu3ePvS26TiqVwvDwMI8tm83C7XZzYw/wqMxXo9GgXC6jVqsxAczLiiMNAS0+CoAsLi6iVqvB7XbDarUeGnQ6CLVaDavV+liw7rHB/P+KJ7Va/URDIJfLjyzU0Ov1mJmZwezsLAcLg8Egms0myuUy8vk8yuUyeyrAo3NTq9WCVCpFrVbjHUqr1SKZTCIejyMYDCIej6PRaMBoNLIrHgwGEQ6HeafT6XSHjkssFkOhUOD06dPweDzw+/14+PAhxzZarRbeeecdVKtVZDIZPmtSJsFisaCvrw9KpXLfAgUAo9EIu93Ok1GlUrHRtVgs/HOdTgelUolcLod2u41SqcRBxEKhgEAggE6ng1KpxAG0RqMBQRBgNBpx+vRpDA4OYnt7GysrK/D5fMhkMiiXy3A6ncdyTyUSCRwOBwwGA8dHqECpUCigXC6j2Wwik8kA+Gvx1dPQbre5LgMAgsEgH3EUCgUbk3Q6jVqtBpvNhpGREahUKt7suptylEolJiYm+GgWiUQ4RlQsFjEwMACDwYBYLIZisQi5XL7vuErzmIKSdAx6WXGkIZDJZLBYLLh8+TLu37+P9fV1LC8v8/nx0qVLxyY/OArxeBwLCwu4f/8+exPd0Ol0mJqawvnz55+42IC/BhUpGEeRYOCv0WLiYSgWi7hx4wYkEglHnOk8q9Pp4HQ6kU6nUSwWcevWLSSTSZjNZpw4cQJ3795FNBqFIAjI5XIYHh4+VqpMJBLBZDLh1KlTmJycxMLCAu7evYuvvvoKXq+Xdyi9Xv/YwiJj0mg09sU2DkIsFkMqle6rHqOfdzodfr60QIBHLEW0EDqdDsxmM0f9yYsTiUQwGo2YnZ3F0NAQJiYmcO3aNfj9fgQCAQwNDR15/4chm81iaWkJX375JWq1GlfmZbNZDAwMPLXqko6UrVZr34KXSCTodDrQ6/XQ6XR8pKUg5NMyV3K5HC6XCw6HA8FgEGtra6jX61yM43a7odPpEIlEOOPUPUapVMr/prG9zDjW0UAmk2FwcBBqtRpDQ0MIhULY3NzE9vY2Jicnj7TWx4Xdbsf8/DwGBwcPNS7ErUdnwqeN+eD/uq9hsVigVCohk8mg0+nw0UcfwWg07qv5dzgckEql8Hg8iEQiCAQC2N7eBgAMDQ1hfn6eMyXlchmNRgNWq/XYOXOJRMKlxR6PB/F4HOvr6ygWi/zMqWiHIAgCp7wkEsmRO8xh938QZPTIixocHNz3e4VCAb1evy+zQcZIIpHwrhkOh5FMJtHf38+fO04Em7C5uQm/3w+1Wo23334bZrMZlUoF9+7dg06ne6oXKBKJIJVKmVxnZGTksYCyXC5HvV5HNBqFSCRCu92GIAi8WOnZ0lyma/b39yOdTmNlZYW9RpfLxcZRLBZzcLN7sXen8GQy2UtfPn7k6Ch6KxKJ2EJaLBYEAgFkMhnk83meKO12m+MIz8N0ZDKZYDKZMD4+/lw3cxxQIMhoNEKlUkEikXB6UCaTcY5bp9NBIpHA4/Fgc3MTW1tbyGazfOYdHByEw+HgcluxWAyr1Qq73f7Ev03lnVRtR3lfQRA4DywSifh8nUwmkUqlkM1modFokMlkEIvFUKvVuC7i20Kj0cBgMCCVSkGr1XLak+olOp0OFAoFarUaG6XusdPkF4vFfL6m/6a50Gq10Ol0njonYrEY0uk0NBoNTpw4AavVilgshpWVlX0ZFVrwB+eaSCSCTqfjbIHD4eCgdK1Wg1gsRqVSQblchlgsRi6XQzweR19fH8dMSqXSY56o2+1GNBrF8vIybyIDAwOcOiXvs16vo16v73vXNDaKV7zMONIQ0OTNZrPQ6/VQqVT8YoFHlk+lUkGhUKDVaiEej3O+m4I4LxNot3U4HDAajYhEIvj0008xMDAAnU6HRCIBj8eD6elpTE1NcXSYUlFOpxNut5t38lgshlKpBKVSCYvF8tTa8kKhgPv378Nut8NsNkOj0aBarbJ3pdVqYTQa4XA44PF4sLi4iJ2dHTgcDgwNDWF5eRnr6+sQi8VwOp0wmUz7Jt/zwGw2w2Kx4MaNG/D5fNDpdBgaGkK5XEY2m0W73cb4+DjS6TQymQwEQYDVaoVKpUKtVsPKygrC4TDvngqFAjKZDHK5HJlMBrlcDuVyGYIgPPU4R8cykUjExUA7OzucBSDQXBMEAfF4nI2mSqXiY9z9+/fZMxGLxYjFYpxeI28wFAphaWkJKpUKoVAIW1tbyGQyj7nwlGoWBAE7OzswGAzwer28w9PGUqvV9uXmqfhOqVSy9/ky41jpw2AwiJs3b6JUKkEkEnHxzeTkJEfW6WVcvXoVCoUCw8PDuHTp0lPPsT8kJiYmkMvlkMlkkM1mudiGJmyj0eDoucVi2ReBd7lcEIvF8Hq9CAaDiEQifGZ8khsuCAIymQwWFxd58dLOJggCDAYDfvKTn8DlckGv12NsbAxzc3MIBAL43//9XygUClQqFajVarz//vvweDxcW/BtYLFYMDk5iUgkglAohEAgwBkfs9mMsbExjIyMIB6Pcxm5TCbjsddqNdjtdkxNTcHtdkOhUMBoNMLlcuHBgweIx+O4e/cu38+TMD4+jmKxiAcPHuB3v/sdG5TBwUGuSqXmLGqW+eyzz6BQKDA0NIQPP/wQU1NTAICFhQV8+umn7D10Oh3Mzc1hamoKZrMZb7/9NlZXV3H9+nU8ePCAC2yonqMbVJDk9XoRi8XYayJDIJfLYbfbOatEoIC00+nkgOTLjCMNAfU1e71e5HI5CIIAiUQCm82GoaEh5k8fGhrCxYsXkUgk2DVTqVQYGxtDtVo9MmPwbaFSqTAxMQGdTgepVAqXy8UZhsHBQXz44YdQq9XweDwQiURwOp04c+YMNBoNSqXSvuoyj8fDBSRSqRTDw8P44IMPkM/nMTk5CaPRyLvy3NwczGYz7Hb7U5uFRCIRn8MLhQKXI0ulUuh0OjgcDkxMTHAa1mw2Y25uDhaLBYlEAo1GAwqFguv3KSOgUqkwPT2NVqu1r0/BbDZjZmaGFyrB4XDgxIkTbFQopfnOO+9gd3eXqz9lMhmsViucTid3qnm9XshkMm42kkgkUCgUfFSiwKbFYsHJkychkUhQq9Wg0+k4pefxePDRRx9hYGBgXyDU4/Gg3W5Do9GgXq9z/MZqtaLRaLCnJZFIHptrfX19UKlUTL6rUCiQTqd5w6K0o06ng1qtxuzsLDQaDSKRCBqNBlQqFXK5HILB4GN0XhQD0Gg0MJvNMJvN+2IWGo0GXq8XOzs7yGQynGZMpVLI5XK8Rl52iFZWVjqZTIbzsoeRl1JZKdXyU1fZwQCIIAi8s74q/fVUxddqtSCRSNiwdU8GOsdT3wHtGvRcBEHgKP1xetBrtRqfuY9yHbuLrCi28F3tLhQwozjJYfX5VINPhqA7935w3JVKBe12G1Kp9FhpRQqwHYzC0zG0eyxPm2udTgeNRoOPGmq1mt9pd18HlUDLZDIsLy/j008/5SKjkZERzjCtr6/jz3/+M8xmM+bn5zE/P89/i0qof/Ob30CtVnPF55///GcEg0FcuXIFo6Oj33mJ8bOgUqlwJbDdbj9+01F3VJYqpA6bjLSQ6DuvAsj9p/s6bCF3B6u674ueS3dq7Tggt5e+87TvUQqUmpu+y+cqkUigVCq5qOjg36KxdN/vk8ZEO/GzgK51UJjjsKq8p801aoCiZ9z9TgVBQDQa5TZduVyOdDqNjY0N5PN5OJ1OmM1mPvb4fD4sLCxgd3cXp0+f3pcVoe9TADEajeLWrVvo7+9HNpvlIrrDqkxfNhx7yz7uJPwhWVmeF8cZ85Pu/XkWJkWbn+Xz35dhPepZPMvYn3cuHLawn/X6T3pmgiAgkUggEAggnU6j0+lAJpOh0+lgfn4eHo+H+f6KxSKCwSBKpRJOnjzJ1YQH/45UKsXs7Cza7TZ8Ph/S6TTsdjvGxsaOpSnwMuDl99176OEFgrwFKptvNBrQarXo6+vjLkO5XM5BbrVajYGBAQwPD3Pp/GHXHB4eRqVSQT6fR6fTwcjICCYnJ18JIwAcM0bQQw+vEw7rx38Sgexhn3kSqFqVGKdeVtWw544R9NDD64RnYY1+liMZxVVeVgPwNPQMQQ89vEC8KkHyg3g1DjA99NDDd4qeIeihhx56R4OXHdSL32g0uMjmVYlEf1egrsbviiacrv8qnvWfFz1D8BKCqt+oXp265qRSKZRKJdRqNZOXvokoFotMpqLX61/4c6BSYavVCrVa/UpUyH5bvP53+Aqi1WqhUCjgxo0bWFtbQzgcZvIQogz71a9+9RgF2JuCnZ0dLC4uwmq14tSpUy/0ObTbbSwsLGBxcRE/+tGPmKn4dcdLbQgSiQS2t7eZB/C7EP8g0Qyfz8eElt/HLkA7/uLiIpxOJ0ZGRnhnI6pun88HjUaDDz74ADqdjinLpVIpNBoN03ktLi5ieHiYO0FfFLLZLGKxGOLxOCYnJ1+YUMnzot1uIxaLwe/3I5FIYG5u7sgafuqfuH//PuRyOQuOPOl4JRKJYLPZYDabce3aNaYJf92PCc8027upoABwMwmd1eihE5HJYRyD1LxDlFlE4ED8eDSRSWJraWkJ/f393OBC1FvUQEKEEIIgQC6XQ6lUck8ENZ3QuZq+Q4QadL4sFArY2NhAPB6H1+tljoUndUvSuZ367KkLsLtzjc71xHpDxKDdpBrJZBKLi4uoVquw2Wz8uVwuB5/Ph1qthrGxMZw9exZ6vR6tVoublUggJBaL4e7duxCLxTCZTNBqtTxues703gRBgFqt5pLa7p+3221ufiKBj1Qqha2tLQQCAZhMJpbvos9QPT4RmHQ//26QKAg9C2onpv6J7sat7mdO74p+JxKJsL29jXQ6Db1eD6fTyX0i1OREzWPUaER6Gg8fPoRGo4Hb7WbRFIlEwoI41FBF7dderxeffvop8yFYrdZnWSqvHI5tCMhdzWQyyGQyzPtG7Z2khJRMJpm3wGg0cu847bCkYiOTyViRJpvNsvAGlXhmMhmEQiHs7OwA+KviDfEeEPNMIpFgERO9Xg+73Q69Xg8AXEuu1WqZcajZbKJYLKJSqTBZajQaRTgcRiKRQCQSQblchsViObStmDrSSqUSotEo6vU6lEolnE4n9Ho9ZDIZGwl6Vs1mEyaTCVarFQaDAc1mE7lcDqFQCOFwGHq9HpFIBBqNBk6nE9VqFel0mgVkqBWYQEYukUiwMAmRa2o0GibyKJVKkEqlKJVKLIBJbbFEFEo6gq1Wi6nBVSoVisUiYrEYdnd3EY/HEYlE+DxusVggFotRLpeRSCSQz+fRbreh1+vR19f3SEvv/79vUgUqFArIZrOo1+usdGU0GplnoVAosJgqGVNBEFiFitSQNjY20Gw2MT09Db1eD7FYjHq9zgpLtVqNW6tVKhVX0dHzpf8nolfiIKzX68jn80w5Rx5aNBrF3t5ezxAAj8gXNzY2sLi4iI2NDd5p9Ho9BgYG8MEHHyCRSOD27dsIBoNs9QHgxIkTOHXqFCYmJgCAlXBoIlOrarPZxMDAAIuf3Lx5E7dv32aFHr/fz3TaIyMjKBQKuH79OoLBIKrVKteOj4+PY3Z2FtPT07h16xai0SisViv+5m/+BjqdDrFYDH/6058gEomYDvvPf/4zAoEAWq0W/vCHP0AikeDMmTP4+7//+8ei0plMBsvLy7h27Rp7GFKpFHa7HZcuXcLg4CDS6TQ+//xzBAIBZq2RyWTciy8SibC8vIwvvvgChUIBy8vL2N3dhVgsxi9/+UuoVCpYrVbE43Fsb29zHXx3+3Mmk8HCwgKuX7+OarWKxcVFbG5uQiaT4de//jUEQcC9e/dQLBaRTqdZlPQf//EfUSgUsLCwwIScAFg85fTp03j33XexvLyMe/fuYWtrC41GA1evXsXKygq8Xi8uXbqEZDKJ27dvs9gIjevkyZM4ffo0JiYm0Ol0sLa2hvv372Nzc5N3bmpNvnDhAqanp5FKpXDr1i2YTCb89Kc/ZYKQfD6Pzz77jGndJycnkUgkmAtDJpMhm81ibW0Nn332Gb8PiUQCu92OyclJAMD//u//IpPJQCKR4L//+78hkUhw+fJlTE5O4quvvkI2m2UWLqlUyiQnY2NjqFQqiMVi33advfQ4ltJRuVxmkUciMKXeeOLS8/l88Pv96OvrY1KPWCyG7e1tqFQq9PX1QafTseVOJBIYGBjAwMAAZDIZNndr2wIAACAASURBVDc3EYvFoFQq8dZbb2FwcBCJRAKlUgl2ux0ulwsejwdWqxXFYhGbm5tYWVmBx+PB6OgoJBIJAoEAQqEQlEolpqenYbPZEA6Hsba2hqGhIeh0OiZePX36NPPajY6Osu7f9PQ01Go1vF7voc8jFoshEAggl8vh7NmzMBgM7BZrNBrk83ksLS0hFApBpVJhfHwcYrEYOzs7zH03OTkJp9OJ0dFRLC0toa+vD6Ojo0wdT+o/X3/9Nfx+P+r1OrxeLwYGBmC325l2y+VyYWhoCMViEf39/RgcHIRSqYRer0c0GkUikUAikYDdbmfRFTpTG41GjI+Ps6HL5XLY3t7Gzs4OpqenYbFY4Ha7USgUkMvlMDo6iqGhIZjNZuTzefh8Puzs7MDj8bAc2e7uLjY3N5nOK51OY3V1FTs7OzCZTHA4HJDJZMjn81hYWGC6cqPRyCKwu7u7PNZyuQyfz4e+vj4IgsB8jRqNBlarFRKJBPF4HDs7O0in0zh79izMZjO/D9rFp6ammJbs5MmTkMvl+wRcI5EIFAoFZmZmmPKMVKkePnzInuWrWjV4HBybs9Dn80GlUmF+fh7nz5/fJxRKCjPtdhsXLlzAyMgIAMDv9+P3v/89dnd3kUwmuS+bzs8ki0a95bdv30YsFkOr1cLp06fRbrcRDocxMTHBZBEAWAsgl8vh8uXLmJiYgEgkgkajwTfffINwOAxBEDA1NcVilA8ePGCdP6VSiampKUxNTUEmk+HChQvIZDKIRqP4+OOPn6rmTLz2arWaW1OlUinrBe7s7GBhYYEVlC5cuMBknisrK1hbW8P09DQmJiZYOXh8fBxXrlxhqrNWq4XZ2VmkUilsbGxgdXUVu7u7mJqawuTkJLxeL7RaLaanpyEWi+Hz+TA9PY3333+feQGJrVcsFuPkyZM4d+4cn4vr9TrLlcnlcrRaLSQSCSSTSeTzeeTzeQwPD7PbHQgE8M477+DUqVNotVrcn1+v13HmzBn09/ejUqlAqVTixo0biMfjKJfLLHfWbrfx3nvvMbMwGWPgETdDX18f0335fD4+ChUKBaRSKWZuisfjzB9BxK2FQgGFQgEqlYoVo4hFSS6XM+tRJBKByWTClStXOPgXiUQAPOoRGBgYwM9+9jMm3KG4DR2JSfPidTUGRxoCkgqr1WoYGhrC5OQk1Go1B+QUCgWTPtrtdni9Xp6Mk5OTTDUVi8X47KrVajExMYH+/n5mniVNwGKxyPp7T0I2m0WxWIRKpUImk8Hm5iZarRaz0NLLo12POPOr1SqcTicuX76MgYGBfWpMxwWdk1OpFBYXFyEIAp+7iSk3FArB5XKhWCxidXUVIpGI+exIffdpIJ68Tz75BDMzM1hbW8PS0hKuX7+O7e1tfPjhh+z2HnUdt9sNm80GjUbDk5gCdRTvqFar3C1Hwbkn0ZB3Oh2kUimO88TjcRYzpWAgsfaEQiE0Gg3YbDacOHGC23u7FxSRybrdbmQyGayvr+PcuXNMTkpkqUajEYFAACqVah/Rh06ng0qlQjqdxtLSEgBgZGSEjxfH4XS02WxwOp372KlIGZsUnKvV6mtdU3DkXVGkmoJuFCgC/kr+QBOJ+Pbo9yQPTgpDNLno5RPzj1gshk6nYwvezZJ8GLqpo8kIUZzBarXuk2Oz2WwYHR3FwsICB51Ib+95rLvH42Ea7VgshlQqBavVitOnT8PtdnNWpdlsolQq8fmy3W6zp3Ecxhpi+BkYGIBWq4XX68XS0hIikQiuX7/OSkFPA03ogzx86XQafr8fW1tbHMMgtl+bzfbUij3yAkn9KJVKsUQZneWdTiekUikqlQorLj1NoUokEjHDD3mPwKM0KrE1k9d1sL23v78fs7OzqFarSKVS+Pzzz/HgwQOcOnUKXq/3WM+arnlQCIbSjJQNexWYhp4XxzJv3ZxxT7KIB9svKTBEi/SoRdfNBXjYjtT9byovValUjwmeuN1uzixIJBJOW1Eqs9PpoFgsPjeHnNFoxNjYGMRiMfx+P3Z3d7G9vc3pSxqnRqOByWTieInNZuN0K2U1jgIddyjt1el0UKlUsLKyglwu91y6Bq1WC5FIBLdv32aXWq/X70uxHjQch4HuhejBCSQVT7z/tBkQaF4cfL8OhwN2ux2dToej/+l0GoODg5y2pGfSDZK7F4lE+94HpUOfFOs5Dr6rEuaXEUcaAiprBR4dE0ql0j66JpJJpwVGi1gQBNRqNRQKBQDY55o+KyjPTX9PoVBAq9VCIpHgrbfewsDAAEeMuzkV2+02AoEA7ty5w+fCUqmEL7/8EleuXOGF1M2N1/0/ugaBJqPJZMLZs2cxPz+P5eVlfP3117h//z5GR0eh1Wo5fUWSZoeNrVQq7XuG3b+nxXKQbsvhcMDhcGBpaQnlcpm9ou7rHxXUqtfr2Nvbw+rqKi5fvsz0XO12G//8z//M3h3h4LWBR7qAWq0WKpUKFy9ehMFgeOweC4UCNBoNstksq1tT/KNarT6md0FMzlarFeFwGOl0mmNFJFVGikIHj3MGgwFnzpzB3Nwc1tfXcf36dTx8+BCDg4Pwer2Hvt/joFuYRaVSvdY9HkcaArVazXTRgUAAt27dwvnz51kVKJvNwmKxsBAopZiazSZWVlaQyWTg9XrR39//zCIPlOfP5XJMAd5qtWA2m6HVarGxsYG1tTXWpq/Vasjn86zQvLW1hfX1dRQKBXz00UfodDrY29vDvXv32G202WxQq9V8fqWAFNUdkCS3SCTC9PQ0crkcs/x2i7WSASR6693dXVb3NRgMHPtQKBQwGAxMkS0Wi1EqldgdJvXlSCTC1Nkk1+Xz+fi6RqMRBoMB2WyWFx5dg1z1w9DNyFwul1EsFhGNRrGzs4NkMrnPyyAvjYRJyfjY7Xbs7u4iEAhgdXUVo6Oj0Ol0qNVq7KlQrn5nZwfBYBCbm5uw2WxIJBK4d+/ePjEQgtlsxvT0NFZWVpBMJmG1WuHxeKDVatFqtaDValGtVvfJjGcyGVSrVX4f5G3Q+5BKpVzXUK1WkUgk0Ol0oFarnxqroapNQRDYuL/RhkAmk8FkMmF6epprvEl7j1hvKbWVyWRw7949+P1+CIKAcDgMs9mMoaEhTvccB/TAqbkmGo3izp07SCaTsNvtMBgMGBwcRCAQwPr6OpLJJPR6PRqNBuRyOZxOJwwGA6d+BgYGMDY2xpVvGxsb2NzcZPedFmen08GtW7dgMBgwMDCAkZER+P1+BINByGQyjI2NsQ4iRclJkmxoaIily9966y0sLi6yBLlGo0Gj0YBSqWQFXrVazX8/Ho/j2rVr0Ov1mJ6eRqVSwf379/fRxpORAoCzZ8+yS07GJhQK4auvvoJer8fJkye5+vMgSDPB4XBgb2+PdQeI1ZdEU8iomUwmtFot3L9/H8lkElKpFCMjI/B4PEilUrh37x4CgQDUajVrBIyMjMBoNGJgYAB+vx9+v5/vr16vIxKJHCp8YzAYMDY2hocPH0IikcBiscBgMLDSsNVqhSAIKJVKKJfLUKvVXHJMqsfZbJaPFGazmasMSdXq+vXrLCBDnuxhHlSr1eL7paDh63xMONIQULrmrbfeAgAsLy/j7t27AB65yGNjYzCbzZiamkK1WsXq6ipCoRCXkZ49exZTU1NMPa1Wqzn4003pLZVKYTKZIAgCl7AaDAaMjIwgkUhwrvjkyZNwOBwYGxtDoVDA6uoqC1SKxWIMDQ3BaDSytLher8fc3BysVitLsJ05cwa7u7vsflJloMPhwM7ODkQiEZrNJvr6+rjyUaFQsIw4KQJRrILUc/r6+mA0GnH27FlUKhWsr6/jwYMHnNfu7+9nN5xKpkdHR7G5uQmfz8c6jBKJhHUlG40GPyPKgpw/fx5Go5HFUcbHx+H3+7G2tgaZTIa+vj4uOT54RlcqlXC73Thx4gTW1tawubnJQUmqCaAJr9fr0d/fj76+Pq7OM5vNmJ2dxeTk5L73Tc9ifHyca0P6+/sxMTGBcrmMnZ0d3omp/Jfui0DeJ20+Ho+HdRxUKhXXIZAH5fF4UKlUEA6H4ff7eQwGgwHz8/Po7+/noN/g4CDy+Tw2NjZ4AxseHub40kHq9Xq9jnA4zJWUr7MRAJ5R4KRarbKLSLEDjUbDLhm5bbS7aDQa1qqjRd8tpqlSqfap0VYqFZYc665lpzJdmUzG4qV0LRoT1d+r1WruE6BzeLcwSHe9PrnnVK5cLBaRz+dZSp1c0VqtBpFIBKvVyuWspVKJU2hUwkzuIwX16FmQN0DPqrtWv1wuo1AocKkylc1Wq1Uux261WvvurbuvgZ4bGQ2lUslKTPScDwqoUGajW9iFjjlU70/pWyoDL5fLEIkeqTVRsJP0/qg6tHuMCoWCe0GojZqCx5lMBv/5n/+J+fl5XL58mRcaFfj8y7/8C8xmM9577z2u9aBsxW9+8xuug7hw4QJEIhEfcUhOXafT8fsgL5TKmEmPUKfTQalUsqEl7wt4lOEJBoP413/9V4yPj2N+fh4zMzMvas394PhWAicymYwnPTUVdadySKabznMAuKmkG6TscxASieQxkUyaoJRWpIYXglarZbePmn+6I96HZQbozHgQZCwoNkDppO7PU6aC+uBpEdHC7n5eNDY6jx+WxqNYhEql4vFTpFqtVsNgMHDWhYRUDp5T6bmRm0vj7hYKOQh6lxqNhoN4VBfSfQ8A2CUn2fjud0rXoKBa9/jpGsViEcVikdO52WwWgUCANRLp2RYKBUSjUfh8PjSbTdjtdrjdbp5f1MQ2OjoKn8+H9fV1zMzMwGq1wmQyQafT7VOcOngMJXk38rjoXRy28SWTSezs7KDVasHpdO4TYX1d8czVEeRqPe33L1LjkCbf0/7eQQPxvKAOyIM/O+xz3bvmUWM7Ct1qScf5+WF4nvs/OL7D3N+DBv+wazytSzMajSIQCLCxzOVySCQScLvdcDqd/LwzmQy2trbg8/lYOaj7mEJ/a2xsDKlUCtvb24jH45yOPc6cOy7FeCwWQzAYhMfjgdvtfkzU5HXE61km1cNLgU6ng3g8jnv37iGRSHB2Z3h4+DFCkUQigVgsBkEQcP78eYyNjT1mmEjQNp1Oo1gscnv0cesyjgPiPEilUvjkk0/gdrtf+/gA0DMEPXyHEIvFmJubg9frZc4JmUzGu3i39zU+Pg6n04lGowGLxfLUYqnh4WEuGnuRRqB7zMPDw5w2fxPQMwQ9fKewWq3H6uU3Go3HdsENBgMHVb8L2Gw2WK3W17pu4CB6hqCHVw5PEjh9Va7/MuLNMXk99NDDE9EzBD300EPvaPAygpqOADC5yJuC75sJ6GBn7Jt2JCD0DMFLCGqdBv5a/PMmGINuSfHvY0FSpWM3w/X39bdfNvQMwQsAUa99/fXXKJfLuHDhAncYHhfEwxgKhZBMJrl9WyaTweFw4Pz587Bara9MOqvZbCIajWJlZQUAcOXKlacas/X1dWxtbSGdTuPKlSuw2+3fqfFrNpuIRCL44osvYDQamSr/9OnTz81V8SrjpTYExWIRqVQKKpUKOp3uuYg4jgL1URAdm9vtfiqbzpPQarW4MerUqVM8sY6DWq2GaDSKmzdvcn+AVCpl2q9isfhY//7LhFQqxd2YxFIlCAJyuRxzE165cuWp16AW8lQqdWhn4otGMpnExsYG/H4/RkdHUS6XEY/Hmd3qVTG4LwrPZAiI1OHg+fUg8QP9nn7X7WodxjzU/XlagFThdfv2bWb5JT2D7uuRO3nYeLp/fnAMNA7SY7h//z4SiQR++tOfwmAwMMPOUc+j3W5zjz8JdRzkAuhm5Tk4RuCvDMILCwt45513MDc3B4/Hw/oHpDnwJKYfur+DxuvgsxYEYd9nD3tfhxnAp42/3W5jc3OTdRWmp6dhNBrZwJKQTDdHAIDHXHCbzYaxsTHYbDZuOqPrd8+vbsKWJ431aXOUrun3+7G6ugq73Y6pqSmk02ncuXMHfr8fOp0O/f39h77z1xXPZAhI2COXy3FLKfHRUfdYLpdDpVLhTjWtVrtvZ2w0Gmi1Wsw2Qx1/JHpBbhkJiFB7qdFohF6v39e91+l0mLSk0WhAq9XCZDIxKSkJrXR3H5IbT1oIEomEKa3j8ThSqRR3QB5sguoGGRDqjafuzIOgrkwiNKHGl27Gm1wux9x/Y2NjGB8f5+49k8nELFDdC4JEQ0qlEvMpEGEn8GjRE68gUbal02lmjDYYDCwgQoSqdrt93yKk63SPXy6Xw2az8TMuFAoIhUKsy5BKpR7r3e90OvvmBvBo4Xd3n1JbtcPh4N2YZOGobZkIUmQyGc+tg8ag2WxyNyYpRxkMBmZw7m4lz+fz+MlPfoKhoSEoFAp4vV7s7OzAZrP1DMFhEAQB0WgU29vb2N3dZdILvV7Pve2FQgGbm5sIh8MsNSaXyzE8PIyhoSE4nU4AwN7eHsLhMNrtNnK5HMrlMlNZud1ujI6OYnR0FMvLy1hcXEQ8Hkej0UAmk8He3h5mZmbQ19fHeoWhUAilUokDPV6vF8PDw3A6nVheXkYul4PJZMLc3ByzHi8uLqLVasFiscBiseCbb75hcouvvvoKSqUS4+PjeOeddx7zCjqdDrLZLLa3t7G3t8eLiLgAu/kT8/k8QqEQNjY2kM/nmXyT6u2JepsIUwRBYEYkqnE/2ExTKpUQiUSwsbGBdDrNykEmkwmDg4M4ceIEqxtFIhEEg0E2voVCAYIgwGQyMdcCLa5GowGPx8OGCACrTW1sbKBYLLI8mMPhwPj4OGw2G77++musr68jk8mgUqkgmUxiZGQEAwMD3IWaSqVw9epV5PN5ZhcymUw4ceIERkZGIJVKWfkplUpBr9czM9XVq1eZCo3mAvE2nD59mnUe2u02tre3EQwGEYvFmFGZaMaIkk0ikSAcDjOV2sDAABOmDA8PY2FhAclk8jG25dcdRxoC6ilfWVnB0tISYrEYjEYjZDIZv1SXywW/38+qO90WPJFIQBAEWCwWyGQyRKNRLCwssMWmDrtkMolwOIxyuYyhoSGk02me6DSBJRIJPB4PNBoNwuEwPv/8czQaDabUymQySCQSqNfrcDqdiMfj2NjYgFQqZdaiYDCIL7/8Eg6Hg5mCY7EYT/RIJMLeyWGo1WrY3d3FtWvXeIdVq9Xcm0+GoN1uM7MS0akplUq0Wi1sbW2hUCjAbDbDZrPBaDSyVNjW1hakUikEQeBdno4E7XYbqVQKd+7cwfr6OlqtFrc6b29vswqQzWZjsZDr169DEARun85ms6xSVa1WuXWYKMtarRZGR0fR6XQQCoVw584d+Hw+ZkoiyjTSpYhEIigUCqhWq8hms2g2m9BqtbBarXxsy2azuHv3LreT1+t1PHz4kN+LTqdDOp3G+vo6dnZ2MDs7C5PJhEKhgGvXrrE3SLwQxWKRyUrI2yuVSlhcXITP50OxWOS25FKphEQiAbPZzOQ0e3t7fNyiuazT6eD1enHjxg1ks1mUSiU2QG8CjkVnXigUcO/ePbRaLZw/fx4XL17kwB0xufh8PpRKJXzyySfcOba+vo4vvvgC6+vrGB4eZi3Ber2OaDSKv/u7v2O++2vXrmF5eRnBYBCCIODy5cswm8344x//iOnpaZw8eRIjIyOQyWTw+/1YX19HJBLBP/zDP2B6ehoikQh3795lma4f/ehHePvtt1Gr1XDnzh0sLCxArVYjHo8jm83i8uXLmJ2dZcqwP/7xj4jH4/inf/onmEymJ5KtRqNRrK2tYWNjA5cuXcLs7CxcLhfK5TJ+//vfMxlKvV7Hzs4OHjx4gNHRUbz11lvwer2o1Wr43e9+h3A4jPv37+Pdd9+F0WjEyMgIzpw5g4cPH+L//u//sLi4iLfffhsnTpyAx+OBSPRI0DMcDuPmzZsYHR3FmTNnMDU1hVqthr/85S8Ih8O4c+cO3n33XQCPDEehUMDw8DDOnTuHkydPYmFhAXfv3sXW1hbm5+dx9uxZ2Gw2bG5u4osvvkA8HufddHt7GxsbGzh58iTOnj0Lq9WKZDKJ//iP/0A4HMbY2Bh++ctf4i9/+QsrJJ06dQo2mw2CIGBjY4OPkJOTkzh79iyrTf37v/87EokE4vH4ofwQ3RAEAV6vFx999BHa7TZu3bqFmzdvYmtri/UpfD4fVlZWoFKp8LOf/QyTk5Not9tYXl7Gv/3bv+27VjKZhFgshs1m43dMalwKhQLFYhGJROKxY9LrjCMNAQmNFotFuN1uTE9Pw2q17mMcymQyqNVqMJvNGB0dhd1uB/AoILS4uMj6cSRrrlKpMDQ0BI/HwxTWxEFImgXdirXUsUZ0UrlcDrlcjr2SeDzOOWFiICK25fHxcRbOaLVa0Gg0ePfdd/cJsRCDD+3u3YrCB5FKpZDJZFjOjEhQpVIpf4eOD9lsFp1OB5OTk9xfLwgC32skEkGj0WC6s3fffRdut5uJYO/du4doNIqpqSmcOXMG+XyevSQ6ctE1PR4PisUi9vb2UK1WeSxisRgejwcTExPQarWshyAWizExMQGPxwOlUon+/n4oFAo0Gg1UKhWUSiUWlyWNwUajwSIyFC/qfnZyuZwZiihe0k3lRhH5VqvFO3a33sWTQEcWipfY7XZYLBZmf6pUKggGg2i1Wujr6+OAZb1ef4yCjNi2xWLxPm0LiUTC7NgU/zku2/HrgGNJnuXzeWYPpvQaPUCpVIpisYhOpwOLxcJkoAA4AlypVJDL5TiaTjqBdBYkYRJysRuNxlPTZaVSiUU9iWmWgnLU4krssx6PB9lsFp9++ilKpRJGRkYwPz8Pq9UKqVR6pOrQQZCqj8Vi4eDaYUUwpDJMakNEgEnHjnA4zGMHHhkjItzs6+vD1tYWNjY2EAqFUKvV4PF4mCZOJBLB6XTCYrEw2YbJZIJarcbu7i7LfQFgDj866qjVanbzHQ4HK1nrdLp9Kct8Ps/UcSRRT0pIarWamZyOcp2Jbcnj8XBgkMYA4FipQpPJBIvFwt8nFudkMsnjS6fTUCqV3DlI1z64o5N8OtGxd4+TuAwBMIHrm4IjDQE9aAC8yA5GhBuNBqRS6aGtoVKplOMMT3qwdN4jbrrDlI66/91sNnkClcvlfZ/r7++Hy+ViXj+DwcCUV/R37Hb7U1mWngYK+NHudhjoHoh+jPjzCBS9fhK//8TEBEZGRjA6OoqrV6+yhiBlWmg3675mN1fi02TculOpRGtGNHDdaT6SSifD0P383W43+vr6YDabn+o6d/+twyjWKIvzrKA8P20ApKFBsYSj0F2rcbC8mLIuz7pBvOo40hCQywSAiSi7z8/E+0ZpGZowJEFGApJqtfq5zluHiVIQuahEIsGFCxfQ19e37zs0UcRiMYLBIG7dugWNRoNOp4N8Po8vv/wS586de+x7xwFx71WrVV5wlJLszl2Tu9xqtVCpVPbt0rlcjr2XJz0TCow6nU5EIhHkcjneFWlXI7JSAJxK7E4hPi+6DbNOp8M777zD6b3u59Cd/qPn0H0NWuzf9c5KmQF6JoRWq3Wox0GKVAcNHBlwKut+k3CkISA6Z7lcjlgsBp/Ph8nJSUgkEtb3I7c3kUhgb28PTqcTrVYLwWCQJ7DNZnvmCUqMNnQUaDabaLfb0Ov10Ol0nCGgs12z2US1WuUikng8js3NTezt7WF6ehqtVgvZbBYLCwtwOBwcKFQoFHxMyOfzTARK0XTyOlwuFwuOkEYfHQ02NjaQzWZ57LQ7CYIAn8/HkueUUmw2m0z7XS6XUalU0Ol09nlG6XQahUKBA25msxmFQgEikQg7OzswGAxwOp3I5/Occenv738iaemzPHez2Qy9Xo9Op4NkMsnSciQqQvyOREVPRpaOdhRw/D5ABKvr6+uIx+NIJBLQarWIRCLY3d197N4o3djtTXZ7QjKZjIvX3hQcyxBQSoqqr0iTgIo3qBAoHA7jwYMHyOVyaDabWF5eRrPZZLXZ4xJxdjPo6nQ6riGgIJ5er4fFYsGDBw+wtrYGQRBgs9k4hafVaqHRaODz+RAIBCCRSHDmzBlIpVL4fD6O+uv1ekxMTDBFeKvVwvb2NorFIqeWdnd3EQ6HIZFIOEhlMBiYI59qJh4+fMgpQSqAcjgc0Gq1WFlZgVgsht1uRyQSQSwWg1arxfDwMKf0QqEQyuUyDAYDU4tvbW0hHo9Do9HA5XKhr68P1WoVVquV04zlchmRSAShUAgSiQQTExNQq9Wo1+vsmh90f4+a4GKxmMe/tbWFe/fuQRAErm0Ih8N8bxRglUqlCIfDCAaDvAs3m80juwlfxGJTqVTweDyssfDw4UPYbDYWV+ne9Sl1mk6nkc/n9ylVEYU8zec3JWMAHPNooNPp8N577+HGjRt48OABS32TAMlHH32EEydOoFgs4ubNm7h+/Tp/f25uDidPnmSu/eOAzqt6vR4DAwO4ceMG/H4/bt26hdnZWczPz2NqagqpVArr6+tYWFhgF5SKamw2GxYWFpgMs5sxd2dnB1tbW1xNRjuKWCzGp59+CqlUihMnTuD999/HxsYGNjY2oFQqcfHiRTidToyNjfF4rl+/DoVCwdF4k8nEXsno6CgqlQquXbuGTz/9lHcdl8uFqakpnDx5ktWSlpaWsLKysq9kuNPpwOv14uzZsxgcHGRxko8//hhfffUVrl69CgBcFTg7O4u5uTloNBqk02k+nhxkAj4us/Lk5CTq9TquXbuGP/zhDzwunU6H8+fPsxwZBU1v3ryJnZ0dDA4OYnJykgOyT4sNvQhDoNVqMTk5ie3tbayuruK3v/0tV1Ae9ErEYjEsFgvi8TiSyST/nrJPlLEiVeg3BcfaomUyGYaHh6FUKjE9Pc3lufTAzGYzNBoNlEolZmZm9slnuVyufZ1ko6OjHGSiSDYF9d577z1UKhWOSJtMJpw5c4aVi2ghWK1WiEQiXLp0CZOTk1zdJ5fL+Rii1WrxwQcfQCQSMQklIwHPVAAAIABJREFURco/+ugj5PN5VgISi8WsxkQlsn19fbDZbJidneVgIx0hvF4vPvnkE07lyWQyjlSTB0VptdnZWRiNRq4sJCZfp9MJtVoNiUSC/v5+vPPOOxgeHmaXmjQUrFYr+vr6oFQqeTebmZmBVqtFNpvdV1lIRUn0ucnJSWg0Gng8Hn6XBoMBZ8+ehcfjYeNHOgwff/wxf5fGOTc3B7PZzM9YIpFAr9fD5XLx0cDtdkMsFnP1KI1Fo9FwirZ7wavVanz88ceQy+U8BkpfzszMcFGW1WrFr371Kw5MEux2O9566y1MTk5ytaBGo8H58+cxNDTEO71EIkE8Hkc0GuX7lEqlLMWWTqdZ1j6fz8Pv97O32V3S/SbgWEpHBNrRarUaS6R3B1Wo2YMCNi/iYXY6HS5B7j6XEiir0Wq1eKE+ryUn1SAKFlG6jHaNg1Hm7kV7MINwMLNSr9c5i3AYvwAFquhzlMp6UoqOsjVkXLpl5V806B3QuA4TBKV5AYDLpr9vFAoFPpa0221kMhmsra3hT3/6E379619zmXmxWMSf/vQn+Hw+XLp0CRMTE4jH47h69SosFgvm5+dx8uTJ73383xeeW+mIQBb1SZVgFCl+kS2cFMF+El7k33uS2tKTFthxU5DU+HTUZ54lWk3ZmudNgz4LjnoHAHhX/qHQ6XQQCARY1BUAaztardZ9FOkGgwH9/f2IRCJYWFjgOE0wGMS5c+fgdrt/sPv4ofBS8xH00MNxQXqF29vb7LFSxSRVsHZjbGwMjUYDn332GVZXV6FSqTA7O4uBgYEjS55fR/QMQQ+vBUQiEfr7+yESiVCpVDjuZLPZOO3bDbPZjImJCeTzeej1eo5xUXPcm4ZnihH00MPrBIp5Pa0C8nXEt44R9NDD64Tu6sc3Ha+/+euhh6egZwQeoWcIeuihh54h6KGHHr6FIaDOrsPKR5/U9dVDDz28nHjuYGE6nebiDZ1Oxx1zzWaTeQpdLtcbRQDZQw+vKp7ZEBA3wN7eHvL5PNecE2lGqVTC1tYW2u0215F/V6WvPfTQw4vBMxsC6tmnvvhupp5ms8lU5Tqd7o3r6e6hh1cVzxwjIP464rmjnnSi3kokEtwFeFBhpoceeng58UyGoN1us06fXC6H2WxmIlPS6CsWi9BoNE/UBeihhx5ePjyTIWg0GigWi8hms9BqtUxPDjxi7U0mk0wo8jS5sB566OHlwjMZgkKhgHQ6DbVazSo8wF+54vP5PJOC9AKEPfTw6uDYhqDdbiOfzyOfz8NisexLGVYqFeb7t9vtP2hfeg899PDsOJYhIDacYrGIarUKl8u1zxvIZDIoFAosI/Wmacv30MOrjmMZgna7jUQigXK5DKVSCbPZvE+YMxaLodVqweFwHEpj1UMPPbzcOHLFHqwWNJlMrCLUarVQLBaRy+UglUpht9shk8l6KcMeenjFcCzJM5K8VqvV+xiJa7UaUqkU6vU6zGbzkRJYAFiotN1uQ6FQcA0C8fCTPuBhn+uhhx6+GxzpEdBir9VqUKvVXDYM/JXpRK1Ww2g0Hou1uFAoIBQKYXNzE+VymWsTtre3sbe3x8o+9LmNjQ1Uq9U3SpCyhx6+bxxpCMrlMqLRKLRaLQwGAxcQNRoNFAoF5HI5mEwmGAyGYx0JSqUSEokEwuEwC22SbDrJr5Mh+H/tvedznOd5PXy2L7b3XWALgEUHAUIESLDJImUVtzjjksxk4szkSz7kT8rnZOw4zeMS62dZsS2LMkUSJIhKlF3sAtjee2/vB77XpQUIgqBEWpS1Z4YzErB49in3c91XPYc46U8SC+2hhx5eHE41BPSyZzIZftnJGygUCsjn85w3OCvzq1gshlwuZ7FO0ilUKpUsQkLU3vS5XvKxhx5eLk7NERSLReRyOdRqNe4dIFDJUKPRQKvVnll402q1wmw2o91us9CHXq/HwsICTyoKBAJWSCLhkp4x6KGHl4dTDUG9XufeAJVKdUTEtNFoQCKRwGw2P5eqDWnvdYtjUpKwm02WftYjl+yhh5ePUw1BX18frFYrDAYDFArFkV1Zr9dDoVBAo9E8lyHoftG7cdKO/6JEMnvooYfTcaoh0Gq10Gq1J/6OBC976KGHLz96gXcPPfTQMwQ99NBDzxD00EMP6BmCHnroAT1D0EMPPaAni/4XjXa7jWazCZFI9KUb2mq1WtxWTr0kX/VScqfT4XvyoomB/2yGgDQPJBJJb5rwJaLT6aBaraJer6Ner6NcLkMmk3H7tkwmO9IYdhoqlQrq9Tr/7cvu7my1WqjX62g0GqhUKqjVagDA569QKL6yDWbNZhOVSgWVSgUAoFAoIJfLz/wsn4U/myHIZDL4yU9+gpGREczPz/f6EF4CWq0WarUa7ty5g+3tbcRiMdTrdWacHh4exsWLF2Gz2c70Ut+9excbGxt488034XK5XjohbSKRwMbGBvx+P+LxOIrFIoDHhmB0dBRvvvkmTCYTk+J8VdButxEMBvHo0SPs7u6iVqthbm4Os7OzsNvtL+Q7XqghaDQaSCaTSKfT/PC6fxcKhaDT6djS9/BikU6n8fDhQ2xsbKDVasHlckEul6NSqaBQKGB5eRntdhuzs7MYGRkBAORyOaRSKaTTabjd7iM09NlsFqFQCKVSCc1m86Weez6fx97eHpaWlqDRaOBwOCCVStFqtVCtVnnMXSgUIh6PIx6PQ6lUcvv7i0C73eb12263MT4+/sJ23M9zTtVqFSsrK0ilUtDr9SiXy9jf30en04HVan0hXtJzXWW73Wb3jQaEiJGo3W6jXC7j4OAAPp8PGo0GLpeLpwuBT+M+2rmazSZPGp6kkdhqtdBoNNBqtXj24DgDUqPR4PixXq8fITd5UaDYrNVqcWxGzE2dTgdCoRAymeyJ8ycxWPo7sVgMqVSKdrvN/2j2gu5Rs9nkYx7/LgB8nONoNBqIRCK4desWxGIxJiYmsLCwAI1Gg1wuh52dHdy6dQtra2uQyWT8bJLJJHZ3d+H3+6FSqaBSqfjZ0jVTrqFaraLZbPJzOCm8azQaaDabaLVaT3yu3W6zZJ5AIOBrlUgkSCaT2N/fx+HhIb75zW9ienoaRqMRzWYTmUwGUqkUGo2G5fY2NjYwMDAAkUh0JNR82vFpvoWuhT5DY/XA49maYDCIvb09tNtt2O12bq3vvgZalwD4+5+2ZhqNBtrtNgQCAb8v9Lt2u/1EyEU/73Q6EIlEqNVqSCQS2N3dhcFgwIULF1CpVPDJJ59gZ2cHCwsL0Ol0z9XmfxKe622hseREIsEPxmg0QiQSodFoIJfLIRgMIhwOo1qtIpVKQSKRQKFQPHGcdDqNTCYDkUgEvV4Pg8HwxAKnY+RyOUilUuj1ephMJn5wxFtAL34sFoNYLIZarYZer/9cN6YbZJWLxSLrPDabTcRiMTSbTSgUCtjt9iPn3+l0UCwWkUwmUSqVIJPJoNPpYLPZUKvVUK1WUavVIJPJoFAoeDEVi0U0Gg3IZDIe1aaXod1uo6+vDzqd7olzzOVyCIfDCIVC+O53v4v5+Xk4nU4AgMlkglqtRqfTwSeffILDw0PkcjmIxWIkEgkEAgHEYjEkEgkYDAZIJJInwoBiscjTqPS8jn+m0+kgm80ik8mgWq1Co9HAZDLxjt1oNI4Yxlwuh0ajAYvFgng8jlwuB6VSiXPnzmF4eJhfEKPRyM88k8kgHA7D7/dDKBTCaDRCqVRCpVLxS9p9/GazCYvFAplMhlarhVKphEKhwCGTxWKBVCpl2j26hyKRCOl0mnMk3ddQKBSQSCQAABqNBv39/U8kM1utFsrlMlKpFBqNBsRiMVQqFQwGA3s5lUqFPR0CGdx6vQ6VSoVcLoeNjQ00Gg3YbDZMT0+j2Wxid3cX+/v72NzcxNzc3OcWFDqTIWg2m9jf38ejR4/g8/l451UoFLBarbh69SoqlQrW19exurqKbDaLaDSKfD6PgYEBnDt3jk/U7/ejVCqhXq+j1WoBAJRKJV5//XUMDg6y1V9eXsb29jbC4TCfh1qtxtTUFKanp2E2m1Gv1/HBBx8gl8tBLpcjHo/Dbrdjenr6iCEgKrRAIIBkMnniNQqFQuh0OoyPjz8RP+fzefh8Pty+fRsajYYXCRGmqNVqzM3NYXJyEgaDAbVaDffu3YPX60UqlUKz2eTju91umEwmJBIJbG1tQafTYXFxEZOTk6hUKvjDH/6AUCgEk8mEt99+G3q9HpFIBL/61a8gFosxOTmJGzduPHH+mUwG6XQaUqkUdrsdZrP5yHVotVrMzMxgfX0dhUIBBwcHKBQK2Nragsfj4e/e2dmBy+XC4uIigMcGYGlpib0S2t0mJyexsLDA1HWxWAz3799HIBDg2B4AhoeHMT09jampKcTjcezt7cHn86FWq6FSqUCr1eLGjRuQy+VQqVQol8vY2NiARCKBw+E4UvFoNBr4+OOP8fDhQ8RiMZRKJRweHmJoaAgLCwvodDqIRqPw+/2o1Wool8swGAy4efMmUqkUDg8PcXh4CIFAgEajwYbk9ddfh0wmw/r6OlZWVlio53/+538wMDCAiYkJXLhwAfv7+9ja2oLX60WtVkOn04FcLofVasXrr7+O/v5+JvPd3NyEz+dDuVxm70Mmk2FmZgZarRbFYhHLy8u4efMmJicn2Rj4/X5sb29DIBDw7u/xeGA2m2G1WtmD6O/vRyaTgcfjwejo6Ms3BKRpuLa2Bq/Xi3K5DJvNxqImKysrMJvNUKvVkMvlkEql7AKrVCooFApIJBI+HhGdGo1GyGQypFIp7O3twWKx8DEymQzW19cRCARYdj2XyyEajaJQKMBkMsFkMqHdbsPr9SKdTsNms0GpVEKpVD7hJhEdeywWw/7+/onXKZFI0N/fj9HR0ScMAblnGxsbkMvlkMvlvPOUy2UIBAK0Wi0YjUbI5XLs7+9jeXkZh4eHaLfb0Gq1KBQKCIVCiMViWFxcRDwex9raGlQqFRwOB5xOJ2KxGLa3t+H1emE2m/Haa6/xS7a+vg6TyQSHw3Hi+ReLRZRKJZ4IPU4pL5fLmYa+XC4jnU7z85JIJKjVarzzUSwOPPbewuEwexUikQi7u7v8DPV6PWq1Gvx+P+7evct6mBKJBJFIBLu7uwCA8fFxFItFHB4eYm1tjfkt1Go1xGIxzGYz7HY7dDodtre32Wu0Wq1MmCsQCNDX1we5XM4uuVKp5GpCLpfD/v4+1tfX+fgajYY5MNvtNqRSKeRyOarVKjKZDB48eIDBwUE4HA7I5XKuqhBZjkKhgFgsRq1Ww8bGBjweD8rlMnNl5HI53L17F06nkyn+V1dXsbOzg2KxCLPZDIlEgnQ6Db/fD61WC7FYjGq1iu3tbQwODsJisWBgYACdTgfhcBiPHj3C4OAgSwgEg0FcuXKFX3ahUMjPY29vjysJnwfPNAR0sWtra5BKpbh69SquX7+OdruNtbU1/PKXv8T29jYuX76Ma9euodPpwOv1wmKx4O/+7u/4OJFIBAAglUrhdrvx13/915DL5VhZWcFvf/tbBINBuN1uXgg+nw8GgwE/+MEPYDQasb+/j3v37uFPf/oTFhcX2ZsAHnsUExMTuHHjxlMZjbrj/JMgEonOxItIYcrU1BTHlOFwGB6PB5cuXYJKpcK9e/dweHiITqcDl8uFyclJ7O3tYXd3Fz6fD/Pz8/yyEd1bKpWCx+Ph0IAMX6PRQCKRQLvdhtVqhc1mO/G8yJ2khXvSmDct9FKphFarhbm5Oej1ekilUvj9fnz729/GuXPnnvg7hUKBN954AzMzMxAIBPjpT3+KRCKB/f19zM7OIhqNYnd3F6FQCH//93+Pubk5SCQS3L9/H7dv38be3h7nU6g8ePHiRZw/fx5Wq5VzIc1mE4lEAg8fPsStW7ewtbWFhYUFnDt3DgMDA5DJZHj33Xchk8lw69YtzM7OcgjU6XSwtbXFnubly5dx7tw59lhUKhXGxsbYkGezWaytreEnP/kJ4vE43G43rl+/DgDY3t6GSCTCj370IyiVSjQaDWQyGWxsbAAArly5gsXFRTQaDSwvL+MnP/kJAoEAjEYjJBIJ7ty5A7lcjvn5edy4cQN9fX1YXV3F+++/zwaUzikajSIcDqO/vx+NRgPZbBaFQgFDQ0NQKBQIhULIZDJsNAmkNBaLxVCtVjnf9FnxTENQqVQQi8VQqVTgdDoxMTHBJKUWiwWjo6Msd3YWDA4OYmpqipMwKpUKVquV48VarcZGo9Vq4fDwEJFIBNlsFvV6nZWVyuUyexoGgwGDg4NPravSS+B0Op/IVxBEItERKranQavVYnp6Gt/61rdQLpfx0UcfIRgMMv9ipVJBMBhEtVqF2WyGy+XicW61Ws0iMSKRCDabDbFYDOl0Gnt7e9jZ2UGpVOK8wMHBAWf1n2UIXhZUKhUuXLjAL2Kr1YLFYkGpVEK1WuW8AMX35K5S/qbVavFmQu64XC7HyMgIzGbzkYy3zWbD17/+dYyPj8Pj8cDn8+GPf/wj/H4/XnvtNVy9evXU/hNKxikUCoyOjsJkMvHx1Wo1J+LK5TIajQZEIhGEQiH//GmoVqv8DshkMlSrVWxubgIAUqkUxGIxKpUKUqkUhEIhyuUy3G43Jicn2VvpTqwLhUJoNBpMTEwgnU4jGAziwoULiEajyGazkMlkcDqdEIlEqFQqfP7dXh71VVBOgfJKnxXPNASNRoPZhtVq9ZGHJ5fLoVar2SqdBUqlElqtlh+oVCqFQqFAOp0+smgoro9Go3weAOBwOKBWq4/seHSMp5VRKNkXDAbh9/tPPC8KDQYHB081Bn19fTAYDLDZbKjX68zXQJneer2ObDaLRqOBYrGIg4MDJJNJTqDR4tNqtXC5XEin07zjBwIBaDQayGQypNNpHB4eIpPJcGLLZDI9NQlK2flSqcS7b/e96M5i07M7S8lJLBbDYDCgr6+PXxrStaDvoUYXkUiEbDbLVaRarcZUdt3PRiQSnRjCyWQymM1m1tY0m83weDyIRqPY2dnh/MrTQBUDkUgEhUJx5PixWAzBYBCRSAStVosVuqhyddq9IA+NDFmhUEC1WoVAIOANkhK4hUKBeTwppgeOkuwIBAIolUpMT0/j1q1bSCQSSKfTCAQCnNzUaDSo1Wq87mUy2ZEQWyqVQiqVHvGyXqoh6HQ67E5TV2B31p5e3qe53Mdx/KaThewumxwvKwKPFyQxJtlsNi7DnQWU6MpkMuxtHAdd27PCg+5zonzI8esj1Go1ZDIZVCoVjutMJhPMZjPHe1tbW0gmkygUCkilUhgbG4NIJOJdKJPJQCaTQavVMivUSaDKA2XFq9XqkR2EsuJkjLqN8bNwvJ2V/o6eOT03iUTyxP1Rq9UwmUxn7goUCARcxhwYGIDD4cCvfvUrRKNRBIPBI+7x8WdFhuD4z9rtNra3t7G+vo5YLMZ5kG6X+jTjTwa00+kw+S593mAwwGg0wuVycaUCeLxhdGuAdrcH0+9HR0fx4MED5PN5HB4ewu/3QyAQwOl0QiaTsQdMz6D7HI+XND8v3f8zDUF3nZQysbQjk+YBJQdfBMiaa7VajI6O4hvf+MYTn6Hd76xeCMVl7777Lt58880TP/Oi+g/6+vowODgIr9cLt9uNt956C3a7/cj9kclkaDab6Ovrg1QqRTwe534Bl8sFnU6HarWKnZ0dpNNpaDQanDt37tTOPp1OB71ej0ajgWAwCJvNBpfLxb8vlUqcwLJYLLBarUd2mM8DiUQClUqFTqeDK1euYHBw8MjvhUIh72DPE8fK5XK43W6YzWYEg0FkMpkjjU3HX4CTZiooobuxsYFKpYJ3330XU1NTUCqV2Nvbw7/8y7880xCIxWIu5TqdTo77jxtHqtwA4BZvMsbNZhO1Wo2NgUQigclkgtVqRSAQwKNHj+D1euFyuTA4OMieI50X9WfQOuoOZ457C58Fz1z1CoUCNpsNCoUCkUgE6+vrOH/+PAqFAvx+P8LhMAYHB6HX69nlJLe4uwHlrKBmF0qihEIh9Pf3QygUcoec0Wh87m4yoVCIvr6+ly7QqlAo4HK5EAwGuaSWy+UgkUi4h35+fh5GoxFarRYmkwn5fB71eh16vZ7LRNlsFn6/H4VCARKJBIODg6des16vh91uh9Vqxc7ODu++Go0GpVIJfr8ft2/f5rKcXq+HSCTiDHmhUODcS6vVeqrncRKMRiM0Gg28Xi+CwSB0Oh0MBgPq9TqKxSLnk07budLpNMrlMgCw0na9XkcoFOJynslkYo+DwpBiscjNaVTe7AZ5g7VajROJ1Eh1eHj4hCdLeZBKpcI5kE6nwxWXZDKJR48eYWZmBn19fey5UfMR9WEEg0Hs7OxgYmICiUQCBwcHyGQy/H3UYDQ0NIR8Po/d3V1ks1lMTU1xo5RcLkdfXx9X6CqVCj+XcrnM/SkvYubgmX8tlUphNBrhdrsRjUbx8OFD1Go1bh4SiUQYHh6GxWKBWCyGXq/nkte9e/cAgG/SWdDX14fh4WF4PB6k02ncvXsXAwMDEAqFHC9RafJVhFKphNvthsfjQSAQwNraGlKp1JGqhNvthtFoRF9fHwYGBpBMJlEsFuFwOKDT6WA0GjE0NMQNJZToPO2a+/r6YLfbMT8/D4/HA6/Xi0ajAa1Wi1KphHg8jkwmg+npaYyOjrJBpGacWq2GnZ0dVCoVSCQSzMzMnPmaqfS3ubmJ3d1dlMtlGI1G3gGNRiMsFgt//qTwIB6Ps9KVWq2GVCrlqky9XofNZsPAwADng9RqNSKRCDY2NlAsFqHRaLiMdhIbtl6vR6VSwd7eHu/W4XCYd3ZqQtJqtVz6XF5ehkwmg9FoxPDwMIaHhxEIBLC8vIxKpQK5XI56vY5MJoO+vj6YzWYYjUY4HA5ks1ksLS0hl8shmUzC5/NxeNENh8OBUCiEhw8fQi6Xc2KZulVpuCiXy6FYLMJoNAJ4nIsolUrckPR5h/ieaQionnr9+nV8/PHHuH//PlZWVgA8jo+mpqYwOzuL/v5+dDod2O12aLVaeL1e/Ou//itUKhXeeustXLp0iWPqbjes2yUXiUTo6+vD0NAQzp8/j6WlJXz00UdsRdVqNXedEZ7WnvwiQdabau7dN51+Tm6cUqnE6Ogo9vb2UCqVEA6HsbOzwwkih8PBbp5EIsHQ0BAikQiEQiHGx8ehVquhVCrhdDphNBpZO+IsxtRqteI73/kOfve732F1dRUffPABWq0WRCIRDAYDxsfHce3atSMhA3U7SqVS3Lp1CyKRCBaLBQ6Hg0O+424ztTlTQtJkMmFiYgLJZBIrKyt4+PDhEaN36dIljq9pBzv+vJLJJNbW1rC1tXXkvovFYly8eBELCwsYGBgA8HjdDQwMcGu02WzmQTYqD9LxxWIxtFotJiYm+OVcWlpCf38/TCYTXC4XpFIpJwKJtXt9fR3/8R//AYVCgUuXLmFqagpXrlxBu93mYSxqKDKZTFylMBgMuHLlCv70pz9haWkJd+/e5d6E40zgAGCxWLjEabfbYTKZjuTFlEolDAYD8vk88vk8/102m0W5XMbAwMCZE7+nQbC5udlJp9PsMj6tb7pSqXD7KJW4KJbvlklvNBqIxWJIpVKoVCrQaDSwWCzQarU4PDxk6TTakcjdp3ZLysLncjlks1nk83mUy+Unvq+vr48z7WTxj8dtLwrk4h5vrQYel48oxrfZbNBqtWi320ilUuy6UtlJoVBAqVTCZDKxy5fNZpFOp9FoNKDX66HX6yGXy9FsNnF4eMhS9ENDQ8+MAykhReIzVOLr/m46Pt2nZrOJYrGIcDjMz1Wr1cJut7OaFWXy6eXP5XLcMUeZ8VqtxmXEYrGIer0OuVwOjUbDoUKlUuHzstvtR9ZaNpvlvyeXnF4e2iXJI6pWq8hms4hEIpxroVZhat09npfJZDK8njqdDu+07XYbCoUCKpUKfX19aDabSCaTSCQSKJfL/LxsNht/bzqdRqlU4m5BlUrF9wh43NyVyWT4WhQKBXw+H+7fv4+pqSlcunQJY2NjfC137tzBf//3f+PGjRu4ePHikY3u4OAAf/zjHxEOhzE/P4+3334bnU4HP//5z+Hz+XD+/HksLCycWk05DtIsbbfbsFgsGB8fP5shOL7QarUaJ2ZOik1osIMWw2edjqKqBA05PW3Q5VUFZZvr9Tpn1I+ff3e1pHvQCPh0SIt2xucB3Tvqcz/Na+r+LC3uz2pQ6ZopsUVJr7OeM8X6VAZ8WoKx3W5zVp0+d5Zz677Xx5vI6Jpp/TYaDfZiuytl9N3dg0SEVquFfD7PMxWUo1hZWcHt27fx9a9/HbOzs9yLEQgEsLKygtXVVfzN3/wNJicnj0gIZLNZeDwe/Pa3v4XL5cIbb7yBRqOBP/zhDyiVSvje974Hq9X6XLmvkwzBc60uuvBnuajdWeLPg5cxSfjnBMV5pxnX0zLWn4dZ6Hnu3Yu8z2e55tPOgwzmWb7nrDJ73X9z/F6fZPBOW7/0DjztxWs2m4hEIjzwJJVKeZxbIpFwGzXlKFZXVxEOhzEwMAC73Q6NRnPkeNQR+eDBAxQKBayvr3MX6cDAAJctPy++nG9YDz28oqA26Y2NDQSDQZ6utFgsuHnzJs80ZLNZHBwcIJ1Ow2Qy4dKlS1x564ZIJIJKpcLly5extbWFtbU1JiahWZQXgZ4h6KGHFwipVIqRkRFotVpusVapVJwroVkYhUKBiYkJTnBS0u84yAMZHh6GUqnE8PAwWq0Wl4pfFHqGoIceXiAo1/a0KVGCXC4/khQ8DQKBADqdDhqNBm63GwA+c97taegZgh56+JLgWR2Qn+vYL+WoPfTQw5cKPUPQQw899AzBlwFUuz5puu6rit59eLHo5QhecVCTDRGxnDT6/FUDNVp9GRWQuseRX6XmuK/2inpFQSy3Pp8P0WgUmUyG26zlcjn0ej0WFhZeKFPzlwnhcJgd3mVWAAAgAElEQVT5LGmS8vPi4OAADx8+xMzMDGw220sZams0Gtjb20OhUIBCocDk5OQrYwxeaUNAcwhSqRR9fX0vTeGm1Wohl8uhXq/DaDS+9CEm4NNW3FQqxdN0tCjK5TJCoRAePHiAWCzGgjDEg0/DXlqtFrVaDalUiklDX+TCIqbharV6ZD7kiwLNvPj9fqytrWFiYuK5euxPW0+hUAgffPAB1/xfhiFotVpIJpPY29uDRCLBwMAAk7d+0fjiz+AUxGIxPHjwAGazGSMjIy9M3qkbxGF3//59JBIJfOMb3+BR1JcJGm75zW9+g7GxMczPz0OpVEIgECCRSODu3bvweDxwu92Yn5+HxWJBrVZDqVRiCjASNXn//fdx4cIFzM7OHmHF+bwgLsX9/X1cvXqV1ZG+KHQ6HRYgSafTz03jHYlEmHV7ZGSEpxmBT+cLaD7gZUAikWBsbIyJbCcmJjAyMnKiTsWfG88tcEJUWDSCqdfreQclOiwiXCQ6826LR+QQYrGY2WMKhQJEIhF0Oh1b4mKxiEgkgr29PTSbTbbS3YKcRJBJzL9E5U3kEkQ1TgwuxKVHRBXUtZVKpZhqPJVKcTfY014qWjQkXkHiK6SoA+CImEaz2eQdm2S8isUiYrEYT2SSmIZKpeJpQL1ej+HhYbjdbqZQp8UqkUhQKBQQi8VwcHCA/v5+2O12PgYAHjiinb3RaMBgMHAHW7VaZaGVVqvFu75QKGQK90AgwOQg5C0RZ2Gz2eRpQproO8mIUqhDz0kkEjF1vVAoZH4A4jLsvs/1ep11ISQSCba3t1Gr1TAxMQGdTsff1W63mVyl2Wzy86N5AbqnxKhM04x0Ld2oVCpIJBIoFotM8X6Sh1AsFvk7lUolj5ADjw09PSuhUIhqtYpyuYy+vj709/cjnU5jdXUVBoPhy2MIaKw2EAjwuCrwmB/AbrdjZGQE5XIZgUAAkUiEiR37+vrgdDoxMDDAY7ukqAM8JlegGwkAAwMDGBoagt1uh9frxebmJkKhEDP7ZDIZjIyMwGQyoV6v8/lQKyexv9rtdhiNRni9XpRKJWi1WoyPj0MmkzEbDBGParVarK6uYn9/H/l8Hg8ePIBCocDQ0BDm5uaeCBHK5TLi8Th8Ph/y+TwPlthsNqZjp/iehk/a7TazNY+NjaHdbnNMmkgksLe3x5RwCwsLAD5NEtL0Ybc0FxlAv9+P1dVVpNNpeDweHsldXFxk4UwKe4rFIlOJKZVKRCIRRCIRlMtlJr8k7r3BwUEEAgEmOCGdiWKxCIPBgLGxMVSrVb7/NJJM3XJ0/zudDhKJBCKRCKLRKLMHE3u12+2GxWJBLpfDwcEBlEolZmZm2KBWKhV4vV7U63VoNBrYbDYcHBxAKpVibGyM5/vz+TwODg4QiURQKBTQbrchl8vZONpsNng8Hjx69IjXU7VaRTqd5vUEPDZYoVCIxUsqlQqkUin6+/sxOTnJbny1WsXh4SFCoRAbcKlUCqvVisHBQdhsNiaDiUajnOxtNBqsSmQ2m/Ho0SO89tprcLlcX3iu4EyGoF6vY3t7G3fv3oXX62VqJLVazTvX4eEhPvzwQ0QiEd59q9UqJicncfXqVeh0OohEIuzv7+PBgwc8s03eQaFQQH9/Py5cuACbzYatrS1sbm4yH0EoFEIgEODMeTwex3vvvYdYLMaxc7FYhNvtxsWLF3H9+nVWmyFGXJ1Oh1AohF//+tdQKpUYGxvD4OAg7t+/j3A4jE6ng9u3b0MoFOLy5cs4f/78E4YglUrh/v37eP/995nuSygUMkeCXC5HMBjEBx98wNoGxK40MDAAiUQCuVwOn8+HpaUlVKtV7O/vMzkJsTT39/dja2sLe3t7MJvNGB4ePkJJVSgU4PF4mDHK6/UiEAhAJBLB7XajVqvh448/RiqVYq9ELpdjcnIS5XIZd+/exebmJr+YtOgvXrwIk8kEv9+P3d1dHBwcoNVq4eHDhwgGgxgdHYXZbMbh4SH+8Ic/sMwc8JgXcXp6GteuXYPBYECj0cDW1hbu3LkDn893hLOiUqngnXfeweLiIpLJJD788EPodDo4nU5mucrn87h16xYAYGhoiAVxBgcH4XK5WLgkFArhvffeQzQaRavVglQqRalUgsvlwsLCAsxmMzY2NrC1tYVcLodSqYRgMIhgMAipVHpkF3/06BGfo1QqZeYomUzGxieVSuH//u//cHBwwLs8iZnMzc3hrbfeQiaTwebmJm7fvs1MTUqlEhaLBUajEVarFR9++CGy2SxqtdpzUcO9DJxJ4CSfz+P+/fuoVCq4cuUKFhYW2Bq3221kMhns7OygUCjg3Xff5R7qvb09rKysYHt7Gy6Xiy0vaRe8+eabGB8fh0Qiwb179+Dz+bC/v49Wq4V33nkHer0eH374IUZHRzExMYHh4WFotVpEo1Fsb28jFArh7bffxsjICAQCAdbX17Gzs4O9vT187WtfYyGUzc1NLC8vQ6lUchb+6tWrmJ2dhVqtxg9/+EP8/ve/RyqVwve//31mDD6pnZPcZKvViu9+97uw2WwcKlgsFqTTaX74i4uLWFhYgFAoxL1799gI3rx5E5cvX4ZGo8Gvf/1rzMzM8E5tsVjQ6XRw7do15HI5+P1+hEIhuFwuzM3NYWRkBAaDARaLBdevX4dGo8F7772Hq1evcp7BarVid3cXnU4H1WoVi4uLmJ2dRV9fH2w2GxqNBi5fvoyLFy8yJXYikcDvf/97JBIJJJNJzM3NMfV8OBzGG2+8gampKUilUiQSCdZg+N73voeBgQGUy2Wsr6/D4/Hg4OAAMzMzODw8xKNHj1AsFvHOO+9gdHQUcrkcsVgMv/jFLwA85ngcHx/nMdudnR3Mzc0xp38wGMT09DQb8U6nA7VaDZ1OB6FQiEAggK2tLezv7+PatWs8z+/z+bC+vo719XVMTk7i5s2bMBqNuHXrFkZHRzE5OYmhoaEjqlA0jj0/P4/Z2VnI5XJ8+OGHvN7sdjtKpRIb6NnZWRaJWV9fx9bWFjY2NnD16lX26LLZLC5duoTJyUk4HA7WCq1UKhCLxUin00in06++ISCm4mQyCYvFgpmZGYyOjjL1d7VaxdLSEvL5PFQqFc6dO8dJPY1Gg52dHWSzWcRiMY6FpFIpzGYzRkdHmaklnU4jGo1yMozcJ6LyJmprANjZ2eHwgrwPilHJcJE02+joKBKJBB49esSsNyQLTvqAVqsVarUaxWKR3dqncSlQbqJaraJUKh3haZRIJAiFQvB4PE/w6lMsG4lE0G63mSJMIpGwxgGxQ7fbbTgcDly/fh0+nw+hUAihUAjlchmxWAznz5+HxWKBXq9nmiu9Xs/HIBBF2eDgIEZHR9nlbjabcDgcTIJSr9eZQqxer6NarcJut8NgMECj0bD0mNPpRLPZxM7ODjKZDD9L4FOu/mq1yoI3h4eHyGazUCqVWFhYYFWjbs4BkUgEjUaDgYEBFnkZHx9ngtFKpcJx9P7+PnMWkheSSqWQTCYhkUgwMjKCyclJ9PX1Qa1WIxQKIRgMIhQKYXJyEiaTicVoKWzohkgkwuDgIMbHxzE6OgqxWAyHw8FU841GA+VyGeFwmEl5ySshb4fCMGoAa7fbGB4exszMDHQ6Ha9VklMjZvAvGs80BMTNX6/XYTKZMDw8DJlMxrulRCLhOJjomcnCOhwOaLVaVoEh7kESRiF3utFowGq1slJOt0DqSaAElVQqZS17Ss6RPkGtVoNer8fQ0BAymQx+97vfoVgsYnh4GO+++y7z9HXTY58FRMS5v7+P7e1tVKtVDA4OMsFqtVpFIpGA0+lEoVCA1+sF8DixRInCZ5Umifvw4sWLcDqd2Nvbw+bmJg4ODpDNZtFqtXDt2rVnEr+IRCJmS+4ecSWWqVwuh0qlwgm5Wq0GiURyKtsw0atVq1UIhUJWMaYELIUv5XIZiUQCnU4HFouFhWNqtdoRFibahZ1OJ+LxODM3VyoVxONxJg8lgdTjpCf0WXK3yRD29/fDaDQiHA4jHo+fadKPDEE31btGo4FSqeR1Vi6Xkc1mIZFIWMAGeBwW0Xhxt8CMSCQ6omNB1yyRSKBUKtFqtbg8/EXimYag+0SVSiW7ZATaHcVi8RO/Ax4bim5q6JNAysrkppJ+/dNAWeZOp8OGg87FarXCbrdz9ttoNGJkZAR/+MMfAHxKN/5Za+LECENae7u7u1CpVLh58yampqZY+pso3bvvEwm9nrXERzTgBoMBc3Nz+NOf/oSHDx/io48+wuTk5BFm4OdBPB7HgwcP8ODBA/ZqZDIZkskkhoaGTh1xpedNVFy0G9PvXC4XnE4n8wcS59+zQBTwa2trnPdJpVKsIkSezPEJPHrpiOq8G1RdIor2s+AkMReqiNHarFQqTDEej8f52imhSRTyp4EMIFWCvmicicWYbjBZ/W6SUMpoU5aVXmC6aaVSiRNVp+2Ex+W5uv/7eI896dsB4Bp7NxQKBZeFDg4OsLa2BoVCgXa7jWKxiHv37uG11157rmaU7u+2Wq24cuUKxsbG4PV64fP58ODBAxgMBuZx7O/vx/T09JG5dOK30+l0z7UwiT15cHAQkUgE+/v7KBQKR7jtzoparYbDw0Osrq7y3DzJ2P3mN79hLr+nPSt63pQ/uHLlyhPxLUnHy+VyLhkSulWDuqHT6ZjkNhgMolgsIpvNYnx8HBqNhhPCx3UK6WUnYVfgUw7GcrnM5KHdWfnTPJ6TrpvceeBTAR6NRoPp6WmMj48f+axEIuFE6WmVADrHz0NH9yLxTENAMbpYLEYqlcLBwQGGhoY4NiqVSlCr1RAKhUilUhy7t1otFi+lMOB5L5hos8mjIKtMdd18Pg+lUon+/n5moCXXUywWI5vNYm9vD3t7e5xJL5VKWFpagtFoZJkwIhWl8IIae0jbjhSViKu/1Woxs61QKOQcBJXXqFQqk8mYTZcIPYlok9xwitHJ7RWJRMyaTLLlVLOnnYNeVDI6AoGAY006xtMWOsmNR6NRTE1NYWJiAjabDblcjl1u2nFp9yVxECJipQRbrVaDWq0+EmbRdbVaLeh0OhZ5TafTUCqVyGazrFVwfJ0RvXg0GkUymYRUKsXg4CDnb0g8p9v1JnHQYDB4pNchHo8jmUyi0+lwromMXKVSYVEUIj89KxQKBXQ6HZLJJGs1ajQaJuulMvZZjAB50i+rY/Z58ExDQJlmlUqFQCCAu3fvQqlUQiaToVwuI5PJcKx/cHCAjY0NjI6Ool6v4/79+8jn81zbP2u3XjcnPfG7pVIp5PN5TrRptVo8ePAAW1tbLGBK8RvRRXk8Huzu7nK1QyQSYWtrC7/85S+5AkHy0/SyUhmRKNoDgQCi0SiEQiGuXbvGOoXUFkz6eaThqFKpMDIygsPDQ8jlco4PiQKc+gnIqxGJRMjn8wiHw2i1WlCr1SyRTglBuVyOSqWCra0thEIh6PV6ZqwhKa5cLscCn2q1+qnuJu2mAoEAhUKBhUC3traQTqdhMBjYiFBSj5J/VDO3WCzw+Xzw+XzY2NhAu92GXq9HqVRCOp3mJCaVgQOBAHZ2dtDf349oNIqVlZUTE2QGgwHT09P4v//7P86z2O12FmBRq9WoVCool8s8dERaAqlUCjs7O5x8vX//PiKRCJRKJQYHB7kRTS6XI5PJHFlPp0nJHQcleZeWluDxeKDT6TA2NoZyuYxcLsfNTpS3OgkUblO78xddMQDOqH2oVqvxta99DcvLy1hbW8P+/j53Dtrtdly5cgXnzp1DqVTCnTt3sLS0xKHC6OgoZ0zPyq5CcZpGo4HL5cLq6iree+89LC8vY3x8HJOTk5iamkIikcD29jYbg1arBZvNhvHxcRiNRiwvL6NWq+Hy5cuw2WzMYz8zM4O9vT3u8iKlYaFQiP/3//4fpFIppqamsLi4yE01MpkMFy9exOHhIdbX1xGJRCASiTh/sri4iIGBAZhMJty4cQN//OMfcXh4iH/7t39jA2g2m3Hx4kV+uUnok2raMpkMN27cQKvVwtLSEu+aVKbtdDqw2Wx48803OSamZ0AhSl9fH9555x1W/TkOEk8ZHR3F7u4u9vb2WGtCqVRCo9Hwi0aLXigU4ne/+x3u3bsHlUqFb37zm5ienkaxWMTdu3fx4MED9kIcDgcuXLgAh8PBykArKyv43//9X56cfJoMuUaj4X4JvV4Pp9PJISVtSAKBAPl8HtlslsOJqakpRKNRrjqIRCIW/5idneUqkFarhcPhwMrKCiKRCB48eIDx8XHMz8+faV0Cjw3BxMQEVyR+/vOfQyaT8f0aGRmB2+3mkPqkuRWqQjSbTdas/KLxTENALbqTk5OQSqUYGBjgjDE1vpBHIBKJEAwGucWYRCydTie/DA6Hg11xom6mnfS1117j3ZZKYufPn+fGDqVSCZvNBr1eD4PBgGvXriEYDHLDDMXvJI01OTkJoVDI7iUNenzta19DKpWCxWLhGI3KmPF4HGKxGAMDA1CpVHy+9M9isWBkZAQqlYpbeElJx2w2o6+vDy6XC4uLiwiFQsjlcuwukhIydQkqFApcuXKFY2ISxhQKhXwvqBlFLBZzmW1kZIRJMLVaLV5//XXu8JPJZNDr9TAajewOd+dCqCR2/fp1hEIhFkAxm83c9GI2m7k0NjQ0hJs3byKfz0MoFLIkG4WLwWCQW4zp/tI1aLVazMzMQKlUsvQ7VSVIz7B7c6C8AvDYO6CmIVqDZrMZarWau1hVKhWHX9evX0cwGOQuU7lcDofDAZfLxToNBoOB11OpVIJKpeINwuFw4Jvf/CaGh4ePtBP39/cDeNzQpNVq+TwWFxfR39+PVCrFuhVkvCQSCTQaDZdBj+ewUqkUYrEYjEYjC/N80XhugRNqlyQ5rG53n2If2iUpc/950Ol0jriCx9WMKNZqNBro6+s70u//vKCcB10XZXW7ZeEpg1yr1VCtViGRSNjtPG75SSSD6vRPEw6h8ydprO5eBcpJPEvsslKpcD37uKzcSTiphbk7KUt/350pp16B7t/R/ae23uPfTRUe4hAgcY2f/exnuHTpEt5++21otVrOz4TDYfznf/4nnE4nbt68ycaAjvVf//VfSCaTsNvtePfdd7n3AgCL4dDcyUlJz3a7jUql8tT19DygWQjqLqR8zmn3vNVq4c6dO1hZWYFMJsNbb73FhKR/LrwQgRNqLab/P/77bvGHF0G0SDsnJYdO4n0/7ffPAwqDuo/TrdTT/TNqJ6bPnvS95G2QAXjauclkMvYSuqsxcrmcG7eedW1yufy57sFJ6kkn/S19jnbJ47qV3YI3J/19OBxGKpVi7y8UCmFjY4PFdTUaDQQCATKZDDweD1ZWVlj01OFwPKEzOTU1hbt372JrawsXL1480ldAHsVp95tq/S9ivZCYy/Fn9zS02+0jjVbf+c53OLH8ReO5x5CfdcEvgzHmz/WdTzvOSS/HWV+2k/7+eb73rNf1We7Bizj2ab/rdDqIRqPY2Njg6cJOpwOpVIqFhYUjKj2JRAKhUAiFQgHnz5/HyMgIe2AEoVCIoaEhxONxVCoVBAIBDmXOcj7P85mz4nmO1Ww24ff70el0MDQ0BJfL9UokCoFXnI+ghy8/SICVegm0Wi1sNhuGh4ePvMDUkDYyMoLz589jYGDgRANsMBgwOjoKAM/srHxVQR23NIj3KuC5cgQ99PAqgKoOL1rk48+B7mrJy9IoeBY+d46ghx5eBVBu4stmBIBPh9ZetXPvGYIevnR41V6i58WreP49XYMeeuihZwh66KGHXmjwSqJ7NJV6EV5Fd/JFg4g8jo8Cv8zvI3JR+v8/13e/augZghcAWsCxWIxJVqRS6XNlhRuNBvPp0T/gcYmMBpVOYtx9VUFdhMRk5HA4Tn3BstksE6UQX8TLfCHb7TZKpRICgcCRzlCLxfKlLUt+HvQMwQsAtQP/9re/RSaTwd/+7d/CZDIdYQV6FvL5PJaWlrC9vY1gMHiECszpdOL73/8+nE7nc03KfZGo1+s4ODjARx99hE6ng3/+538+9cXe2tpiEtl/+qd/wvDw8Es1BI1GAwcHB/jxj38Mq9XKcwTvvPPOkf6GrwpeaUMQi8Xg9Xq5CeWzEIk8C/QSE8MtEbM+r/pMp9NhmuyTiDdOQy6Xw97eHm7fvg2r1YqrV69Cr9fzXAdxPL6qPR5erxfpdJqn+4iBiYhszgKj0Qi32836FS/bPSdyU41Gg7GxMdRqNaysrHBH46ugNfDnxHOtdiJfIKIOGrihGLZ7AIgmxo67yEQGQfXUWq3GZCLdMlS1Wg3RaBRra2uw2+0Qi8UsWEFx3PHBHKlUyoMvnU4H9Xqde+W7/6Y7BhcIBMjlcvB4PIjH43C73Wi320+Qj54EGqgh4g7iwz/OsNRsNplYheYUuoeUcrkcQqEQ4vE4XnvtNVy4cAEmk4kHcVqtFjQazRHjRC9ZvV5ncotu7QNquqGYm4ZtaMCom3y2Xq/z5GH3Mej8ycBRPK1UKnmcuFarwe/3IxgMwuFwQKVS8bAWfT+tDeL2B8DHoLVhMBjgdrthNpuZGIaOT4NttVqN6dePXy+h1WrxvSHSEblczjMjtC4ODg4QDAYxNjaGsbExphzz+/3M9/BVwpkMAS2GfD6PVCqFTCbDhA4DAwPQaDTM4UYKMQKBgEdWlUolP8xyucxUzvV6HblcDplMBmKxGDabDWazGXK5HKlUCoeHh9jf3wcAfjFNJhPHj5VKBbFYjLnhNRoN010JhUIkk0le4NTO2Wg0kM1meaeVyWTMEpxIJHiU1WQy8QjqcdD0YSaTYdbaVquFQqFw5HNkGIlYpVKp8BirTqeDQqGAQCBAsVhELpdjijO73c4G8fisOk28EblGsVhkgk+9Xs+7KTHuknhqo9FAPB7n8WASiclkMshms2g0GnA4HDCZTNz/TgaMvoumLe12O9/jSCSCg4MDhEIhCIVCXgt9fX1sEIkVic4XAGw2GwwGA7/0fX19MBgMUCgUvFbq9TqCwSAPJqXTaeTzeUilUqZ0795oarUa30taozSWTaPyRL5K4i7z8/Po7++HSCTC8PAwq0aNjY19pZKGZzIERGG9vLyM3d1d3mW0Wi2cTie+/vWvIx6P486dOzg4OODOqU6ng5mZGVy4cAGTk5MAAI/Hg62tLdRqNcRiMeY5bDQacLlcOH/+PK5du4Y7d+7g3r17zAjk9XqZS2BkZAT5fB4fffQRDg4OUKlUIBQK0Wq1MD4+jrm5OZw7dw537txBJBKB0WjEt7/9bWg0GkQiEbz33nsQCARwOp1wOBx4//33cXh4iGaziV/84hcQiURYWFjAD3/4wycWQ6fTQSQSwd27d7G7u4tSqcQvXi6Xg8vl4s/G43E8evQI9+7dY5k44PHud+HCBVy/fp2p4IxGI+r1OjY3N6FUKnHu3LkTqwWZTAZbW1u4d+8eUqkUt6zqdDpMTU3h7bffPqLotLq6ilKpdCRsMRgMGBgYQDweR7FY5J3W6XRifn4e165dAwAeGLp37x6PGhP11+XLl+F2u/HrX/8aPp8PxWIRiUQCm5ubmJ6exvnz55lgNhQK4cc//jFT1ROd9xtvvIHFxUVIpVKEQiFWIvrBD36A/v5+JBIJ/PSnP2UjHgwGeW0ZDAYe4aUx5vv372N9fR2Hh4cAwOPjIpEIf/VXf4Vz585BJpNhf38f1WoVZrMZFouFn8HIyAi8Xi9SqRRqtdpTx8b/EnEmFuNSqYSVlRWEw2FotVq43W4e/1QoFCxwcnBwgIGBAZjNZggEAkQiEfj9fuYVJFKJaDSKWCyG4eFhjI2NQSwWs2vu8Xh4kaXTaVQqFSYbcblcsFgsrPKztbWFoaEhJsLY399HOByGQqFgeetoNIrd3V2MjIxArVYjGAzC5/PhwoULrGEwNTWFSqWCYrGI1157jSXPTgLRiK2urnJMrNPpUKlUsLa2xp9rNBoIBAJ4+PAhWq0WC5PU63V4vV54vV5YLBaMjY1Bp9NhcHAQIyMjiEQiuHXrFsLhMAYHB9Hf3898+M1mE5FIBPfu3UOlUoHT6YTVakWj0cD+/j58Ph+2trYwNjbGOpT7+/ssH261WnFwcIBkMolHjx5Bp9NheHgYCoUCsViMdRQvXbqETqcDv9+Pzc1NyGQyuN1uKBQKFAoFbG9vw+fzwWw249y5c0zhTgzSQ0ND0Ov1TGcOPB4qmpychEQiQTabxdraGisnWa1WVKtV5HI5JBIJDtsajQai0SgqlQocDgcuXrwI4LGEeSwWg8fjgcFggFQqRSwWw/r6OlKpFBwOBwvPhMNhFk8hboloNAoAMJlM7FEolUrY7XYOFUnL4ctSpfm8eKYhaDQaPCuuUCiwsLCAxcVFdrMqlQo2NzfZWl+7do2JFnw+H37+858jEAggHo8zTwHFzXNzc5idnWXxy7t373IJbm5uDq1WC4FAgNWCSY13fX0d+/v7yOVyGBsbw8TEBIDHM/l37txh/r/JyUnm8ltdXYVEImHBSiLulEgkuHLlCpLJJKsvnSZwEovF4Pf7kUgkcPXqVZw/fx5ms5n5+jKZDDqdDkqlEsu0Xb58GZcuXYLT6UStVsPPfvYzplkjiS+n04nFxUWsr68jHA6zsZycnITb7YbRaGQjurOzgytXruDSpUuc6Hr//ffh8Xiwvr6O/v7+IzmU8fFxXLt2DePj41hZWcHt27exsbGB+fl5LCwswGAwwOfz4Ve/+hUymQznDUjb8NKlS6zZl0ql4PV6kUwmUSqVcP36deRyOQgEAszMzGBhYQEmk4m1KgFApVJhdnYWMzMzUKlUCIVC2N3d5RfuWVl6uVyOkZER3LhxA51OB5988gkbS2K08ng8CAQCsFgsuHnzJtxuN5rNJlZXV7G8vMzHarfbSKfTTHVPO75MJuPwgXQRid35q4BnGgISmqhWqxgeHsbk5OQRemi6sc1mE2azmSwK+wgAAApOSURBVGnBALC6TL1eRzQaZWUZpVKJiYkJ2O12qNVqjk+3traYnuu0DHkmk0GxWIRCoTgiAEqxOuUzdDodxsfHkc1msby8zDx277zzDlwuFysMPw9SqRRyuRxnmwcGBnjGvjspSvkDItOw2WzsRQ0NDaFSqSASiXDyTKfT4fXXX8f4+DgTdCwvL2Nvbw/nz5/Ht771LWSzWTY0IyMjcDgckEqlXGJMp9NMP0ZGVyQSweVyYXR0FAKBAHq9HhqNhqnciAeQcjOU1MtkMizyCgCHh4eIRqMshkL3+1nVEXrhLl++zEQuBoMBarWaN5JngTzH7ryJ2WxGsVhk9qRAIADgsZDu+Pg4cx8cf5FJNVkul3N+gs6TejYEAgELu35VcCbtQ4rjiZb8OEtNpVKBSCRiaXC6uURnRnROdGOPZ/KJs1Amk7FqzknklgSiCSOBE6pENBoNmM1mWK1WppQ2m80YGRnB/fv30Wg0WLG3exE8D0hO3WazMRXbSedKcTdx2XXrOhAtGElj0T3pLhNaLBZmYfZ6vTg4OOCqDXEHUrIRAFO0kQvc/XyIxhs42qlItGbEJUhZdaJsI4oxqlzQtVosliNJ2WeBsvzdNOmUEDyLIT7eXUkvMfFB0jkSEehppV+qGhC12PE1QBWnbi2GrwKeq3zYvaCOgxYcgbrtSCP+WS9dN9fgSS/WcetMFFkmk+lIZt3lch0hU+3WDKAyGWktPE/Dz/Hv7i590bU+bQfppjsDwLx6J4GqCqT3l8vlsLW1xdTchJMUf45rBZyE44w/xLBDP6drIUilUlgsFiaUBR7vujqd7okYuvv6aT08jaWJvvOz7LokFHP8nh/n0HwaWzKd61dpx38WnmkIxGIxl+vK5TLy+TyLftKioXxBoVDg3ZxczHw+D4HgMfX5ZyVioJo0PTiZTMaiKvPz83C5XEfq57QIW60WKxAT6265XMZHH32Ed999l1+s4y9B93d1vxhUrxeJRJyJ79Zd7NYSIOGUVquFXC7HxolCqWq1CrVazS5st2dA52+1WmE0GllbQKVSQSqVsntbqVSgUqnYuBWLRVYZ+jwQCAQs/qJUKjE3N8fZ9eP3uPv+ERkqvWRkAE/z7l4EKMdE95W8l1qt9kToQZ4X9bAcNwZEAHtWDY6/FDzTECgUCqZ83t/fx927d3H16lVIpVJOCJEYSDAYxKNHjzA0NIRGo4GNjQ2k02kMDQ1xU9Bzndz//+JRvE0PmerlpGkgFothMpk480x05F6vlzsG33nnHQCPM85LS0ssbEK7HYUwVGunFyoejyOdTkMgEODcuXPQ6XSQy+XweDysztvpdLC0tIRoNMo1eLPZDKPRyGUtgUAAq9WKaDQKv9+PVquFwcFBSKVSruW3221WEep0OiwT32w2mcyzVqtBLBZjbW2Ns/mRSAQ+nw/lchlTU1NMzvlZIRKJYLVaYTAY4PV6cevWLVy8eJHnBQKBAFPZd79Y8XicacIrlcozQ7wXBblcjv7+fuzv78Pv98Pv98NkMnFlqfteEA1/pVI5UtKlcIAUlWij+argmW8mxbgzMzPw+Xx4+PAhv2zknrvdbgwODiKdTuP+/fvwer1otVoIh8MsQmoymc68U9EDUCqVsFqtCIVCXFGwWq2sckyKxLFYjJOOMpmMm5zW19eRyWQwPDyM0dFRTqx5PB54PB4olUo2YqQj+Mknn0Cj0bCU+N7eHg4ODiCRSDA+Pg6r1QqHwwGv14vV1VXs7+9DLBYjk8lwGYrOw+VyYXx8HMFgELVaDSqVCplMhkt/k5OTbEC3t7cRiURY5gx4TOhZrVYxNjYGp9MJg8GASqWCubk5pFIp3L59m2XnM5kMbDYbZmdnoVKpUCwWeUc+Hg48a4GTR0BEoXt7eyiVStDr9ewZjo2N8b0jbn6fzweBQACHwwG9Xn9ksu9p3/MiXjalUomRkRHs7u4imUzi97//PdRqNZcju0H5lWKxiFQqxYaAGsSq1SrkcvkTubC/dJxJBFWhUHANd3NzE+vr65yBpvr45OQk9+xTu6ZcLsfMzAwmJyfZDSd1XEokAp/KRBO1M+ULtFotRkdHkUwmmeG20+lgYGAAo6OjyOfz2Nragsfj4SanwcFBmEwm1Go1DmPm5uZgNBpZ6Wh+fh6BQIAlxkkkgxSHaAHY7XaUSiXOMrfbbTZs0WiU5dDkcjmcTifcbjcrOonFYrhcLjSbTXz88ccIhULcej08PIzp6Wm43W6IxWKuclBTE7VgSyQSjI6OYm5uDjabjbsvX3/9dXz88ccIh8MIhULcHHXu3Dnuy6jX69DpdHA6nUwlDoC78kiTke6/WCxmwRfSdHC73Wi1Wvj4448RCATg9/shFAphMBjgcDjQaDQglUrZOFJZsFwus+CL1Wo9Mb9DnhitC+osrFQq7JZLpVI2Kt3lXDI+5XKZBW8HBwcxPT2Nra0t7kal6ghdI1GcWSwWBAIBJJNJ1h8kTYVO57GqMRm9rwrOTF5K7aaVSoWltOVyOceSFHPRZ0islHrCu0UqumcRyEsgYZRWq3Wk15zaYCkDr9VqOclH31cul1Gv13lRUIxH8SElkajnnQQwu/MfJJBKYqBKpRIKhYJnGYDHHYHdMxVUvhKJRMz7T64yXS919FFOQSKRQKlU8s5PXYl030jCm+Jeym7T+VNOgp5DrVaDVCpFX18fXzt9jnruu7n/qX+/Xq9DpVJxjoKEZKjdlxJ5jUaDm61ITYruM5VMaTiK+gZIF1IoFB6ZLSDQiDIZO4lEwuKmrVaLy9OtVgvFYpE9OVorJBxDRlwikXDPBInW0vXv7u7i3//93/EP//APuHjxIlQqFeLxON577z0EAgH86Ec/gt1uRzQaxa1bt5BOp7G4uIjr16//xRqCz0VeSiIXJAlNLma3u08vFu1AJ6n/0EM9jm6hjO6fkZAotZZ2J3EUCgXHc61Wiz0J+s5u6arTvgf4NLlHoqLd10efJ0+B7kW3qAiVt7pLpHRcErqknf546zDtwAqFAlqt9si1HndP6bzo82Q0jrv8VLI7bthpuKtbZot2y+P3q3twTKlUstd1/Ll23w/6DjKEJz1rKhd3gwxCN0Qi0YnS7yTHdhwkP0Y5i2g0inA4zENEZGAMBgO3MK+urqLT6SCRSMDv93PH6V+qEXgannsMmRbYab9/kbHV8Zf/ad/3IrK8J13baddy0mI8aQE96xroM1QvPwvInX/eBOxnwVnOnxpyvih0Oh1unyZDlUwmOYFKmpPA45CVclrUMUsCLMf1Fr4qeKX5CHro4Syg8msoFML6+jqy2SwkEglPEc7Ozj7BZTE6Oop2u41Hjx5hd3cXRqMR58+fh9PpPNGT/EtHzxD08KUHeVNvvPEG5ufn0Ww2OaxRKBScq+qGVCrF8PAw/vEf//FIHuvLwgD1otEzBD38RYDavs8KylMQ78DTOiC/KmBDQBnir+qN6KGHrwq6O2AJbAharRZisVjPEPTQw184TprBEFM577RBmB566OEvD0TVBwD/H7AwsG4t7OuyAAAAAElFTkSuQmCC;" vertex="1" parent="1">
          <mxGeometry x="210" y="470" width="110.97" height="80" as="geometry" />
        </mxCell>
        <mxCell id="LiAQzGf3EZ_xEIawhr6P-52" style="edgeStyle=orthogonalEdgeStyle;rounded=0;orthogonalLoop=1;jettySize=auto;html=1;entryX=0.482;entryY=1.003;entryDx=0;entryDy=0;entryPerimeter=0;" edge="1" parent="1" source="LiAQzGf3EZ_xEIawhr6P-50" target="LiAQzGf3EZ_xEIawhr6P-45">
          <mxGeometry relative="1" as="geometry" />
        </mxCell>
        <mxCell id="LiAQzGf3EZ_xEIawhr6P-54" style="edgeStyle=orthogonalEdgeStyle;rounded=0;orthogonalLoop=1;jettySize=auto;html=1;exitX=0.5;exitY=0;exitDx=0;exitDy=0;entryX=0.56;entryY=1.033;entryDx=0;entryDy=0;entryPerimeter=0;dashed=1;endArrow=open;endFill=0;" edge="1" parent="1" source="LiAQzGf3EZ_xEIawhr6P-50" target="LiAQzGf3EZ_xEIawhr6P-33">
          <mxGeometry relative="1" as="geometry">
            <mxPoint x="360" y="340" as="targetPoint" />
          </mxGeometry>
        </mxCell>
        <mxCell id="LiAQzGf3EZ_xEIawhr6P-55" style="edgeStyle=orthogonalEdgeStyle;rounded=0;orthogonalLoop=1;jettySize=auto;html=1;exitX=0.5;exitY=0;exitDx=0;exitDy=0;entryX=0.497;entryY=1.033;entryDx=0;entryDy=0;entryPerimeter=0;dashed=1;endArrow=open;endFill=0;" edge="1" parent="1" source="LiAQzGf3EZ_xEIawhr6P-50" target="LiAQzGf3EZ_xEIawhr6P-36">
          <mxGeometry relative="1" as="geometry" />
        </mxCell>
        <mxCell id="LiAQzGf3EZ_xEIawhr6P-50" value="Client" style="rounded=1;whiteSpace=wrap;html=1;" vertex="1" parent="1">
          <mxGeometry x="205.49" y="400" width="120" height="30" as="geometry" />
        </mxCell>
        <mxCell id="LiAQzGf3EZ_xEIawhr6P-57" style="edgeStyle=orthogonalEdgeStyle;rounded=0;orthogonalLoop=1;jettySize=auto;html=1;entryX=-0.009;entryY=0.418;entryDx=0;entryDy=0;entryPerimeter=0;endArrow=open;endFill=0;" edge="1" parent="1" source="LiAQzGf3EZ_xEIawhr6P-43" target="LiAQzGf3EZ_xEIawhr6P-29">
          <mxGeometry relative="1" as="geometry" />
        </mxCell>
      </root>
    </mxGraphModel>
  </diagram>
</mxfile>
